<?xml version="1.0" encoding="UTF-8" standalone="no"?>
<svg
   xmlns:dc="http://purl.org/dc/elements/1.1/"
   xmlns:cc="http://creativecommons.org/ns#"
   xmlns:rdf="http://www.w3.org/1999/02/22-rdf-syntax-ns#"
   xmlns:svg="http://www.w3.org/2000/svg"
   xmlns="http://www.w3.org/2000/svg"
   xmlns:xlink="http://www.w3.org/1999/xlink"
   xmlns:sodipodi="http://sodipodi.sourceforge.net/DTD/sodipodi-0.dtd"
   xmlns:inkscape="http://www.inkscape.org/namespaces/inkscape"
   sodipodi:docname="eye.svg"
   inkscape:version="1.0 (4035a4fb49, 2020-05-01)"
   id="svg8"
   version="1.1"
   viewBox="0 0 26.458333 26.458335"
   height="100"
   width="100">
  <defs
     id="defs2">
    <linearGradient
       id="linearGradient916"
       inkscape:collect="always">
      <stop
         id="stop912"
         offset="0"
         style="stop-color:#ffffff;stop-opacity:1;" />
      <stop
         id="stop914"
         offset="1"
         style="stop-color:#ffffff;stop-opacity:0;" />
    </linearGradient>
    <linearGradient
       id="linearGradient906"
       inkscape:collect="always">
      <stop
         id="stop902"
         offset="0"
         style="stop-color:#0055d4;stop-opacity:1;" />
      <stop
         id="stop904"
         offset="1"
         style="stop-color:#0055d4;stop-opacity:0;" />
    </linearGradient>
    <linearGradient
       id="linearGradient896"
       inkscape:collect="always">
      <stop
         id="stop892"
         offset="0"
         style="stop-color:#55ff99;stop-opacity:1;" />
      <stop
         id="stop894"
         offset="1"
         style="stop-color:#55ff99;stop-opacity:0;" />
    </linearGradient>
    <linearGradient
       id="linearGradient880"
       inkscape:collect="always">
      <stop
         id="stop876"
         offset="0"
         style="stop-color:#a2ecff;stop-opacity:1" />
      <stop
         style="stop-color:#62dfff;stop-opacity:1;"
         offset="0.45744681"
         id="stop884" />
      <stop
         id="stop878"
         offset="1"
         style="stop-color:#00bbea;stop-opacity:1" />
    </linearGradient>
    <linearGradient
       id="linearGradient839"
       inkscape:collect="always">
      <stop
         id="stop835"
         offset="0"
         style="stop-color:#ffffff;stop-opacity:1" />
      <stop
         style="stop-color:#f2f2f2;stop-opacity:1"
         offset="0.62531316"
         id="stop843" />
      <stop
         id="stop845"
         offset="0.88400745"
         style="stop-color:#cdcdcd;stop-opacity:1" />
      <stop
         id="stop837"
         offset="1"
         style="stop-color:#b3b3b3;stop-opacity:1" />
    </linearGradient>
    <radialGradient
       gradientUnits="userSpaceOnUse"
       r="47.625"
       fy="142.08124"
       fx="105.83334"
       cy="142.08124"
       cx="105.83334"
       id="radialGradient841"
       xlink:href="#linearGradient839"
       inkscape:collect="always" />
    <radialGradient
       gradientUnits="userSpaceOnUse"
       r="24.870834"
       fy="144.46249"
       fx="102.65833"
       cy="144.46249"
       cx="102.65833"
       id="radialGradient882"
       xlink:href="#linearGradient880"
       inkscape:collect="always" />
    <radialGradient
       gradientTransform="matrix(1.270807,0,0,1.0432271,-27.800604,-7.3445751)"
       gradientUnits="userSpaceOnUse"
       r="24.870834"
       fy="169.90656"
       fx="102.65833"
       cy="169.90656"
       cx="102.65833"
       id="radialGradient898"
       xlink:href="#linearGradient896"
       inkscape:collect="always" />
    <radialGradient
       gradientTransform="matrix(1.4513447,0,0,1.2216086,-46.334298,-25.297541)"
       gradientUnits="userSpaceOnUse"
       r="24.870834"
       fy="114.15413"
       fx="102.65833"
       cy="114.15413"
       cx="102.65833"
       id="radialGradient908"
       xlink:href="#linearGradient906"
       inkscape:collect="always" />
    <linearGradient
       gradientTransform="translate(0,-0.52916667)"
       gradientUnits="userSpaceOnUse"
       y2="135.29515"
       x2="102.92803"
       y1="119.20552"
       x1="102.92803"
       id="linearGradient918"
       xlink:href="#linearGradient916"
       inkscape:collect="always" />
    <filter
       height="1.9239547"
       y="-0.46197736"
       width="1.1036568"
       x="-0.051828384"
       id="filter1086"
       style="color-interpolation-filters:sRGB"
       inkscape:collect="always">
      <feGaussianBlur
         id="feGaussianBlur1088"
         stdDeviation="2.0569391"
         inkscape:collect="always" />
    </filter>
  </defs>
  <sodipodi:namedview
     inkscape:object-nodes="false"
     inkscape:window-maximized="1"
     inkscape:window-y="-9"
     inkscape:window-x="-9"
     inkscape:window-height="1001"
     inkscape:window-width="1920"
     units="px"
     showgrid="false"
     inkscape:document-rotation="0"
     inkscape:current-layer="layer1"
     inkscape:document-units="mm"
     inkscape:cy="60.937775"
     inkscape:cx="64.5"
     inkscape:zoom="4"
     inkscape:pageshadow="2"
     inkscape:pageopacity="0.0"
     borderopacity="1.0"
     bordercolor="#666666"
     pagecolor="#ffffff"
     id="base" />
  <metadata
     id="metadata5">
    <rdf:RDF>
      <cc:Work
         rdf:about="">
        <dc:format>image/svg+xml</dc:format>
        <dc:type
           rdf:resource="http://purl.org/dc/dcmitype/StillImage" />
        <dc:title></dc:title>
      </cc:Work>
    </rdf:RDF>
  </metadata>
  <g
     id="layer1"
     inkscape:groupmode="layer"
     inkscape:label="Layer 1">
    <g
       transform="matrix(0.26911374,0,0,0.26911374,-14.529893,-25.836454)"
       id="g1103">
      <ellipse
         cy="187.49289"
         cx="102.65833"
         id="circle924"
         style="fill:#000000;fill-opacity:1;stroke-width:0.886208;stroke-linecap:round;stroke-linejoin:round;filter:url(#filter1086)"
         rx="47.625"
         ry="5.3429608"
         transform="matrix(0.8545157,0,0,0.8545157,14.935176,27.277271)" />
      <circle
         style="fill:url(#radialGradient841);fill-opacity:1;stroke-width:2.64583;stroke-linecap:round;stroke-linejoin:round"
         id="path833"
         cx="102.65833"
         cy="144.46249"
         r="47.625" />
      <path
         id="circle847"
         style="opacity:0.642623;fill:#ffffff;fill-opacity:1;stroke-width:9;stroke-linecap:round;stroke-linejoin:round"
         d="m 348,389.01562 a 162,162 0 0 0 -71.6875,39.64063 l 9.56641,9.56641 C 303.17429,421.82897 324.40158,409.54246 348,402.94922 Z m 0,22.24805 c -21.41735,6.34094 -40.69123,17.64684 -56.49805,32.58203 l 9.56836,9.56836 A 127.00001,127.00001 0 0 1 348,425.46289 Z M 270.65625,434.3125 A 162,162 0 0 0 231.01562,506 h 13.93165 c 6.59367,-23.59882 18.88079,-44.82586 35.27539,-62.12109 z m 15.18945,15.18945 C 270.90928,465.30876 259.60319,484.58193 253.26172,506 h 14.20117 a 127.00001,127.00001 0 0 1 27.95117,-46.92969 z"
         transform="scale(0.26458333)" />
      <circle
         r="27.78125"
         cy="144.46249"
         cx="102.65833"
         id="circle870"
         style="fill:#ffffff;fill-opacity:1;stroke-width:1.5434;stroke-linecap:round;stroke-linejoin:round" />
      <circle
         style="fill:#000080;fill-opacity:1;stroke-width:1.44051;stroke-linecap:round;stroke-linejoin:round"
         id="circle872"
         cx="102.65833"
         cy="144.46249"
         r="25.929167" />
      <circle
         r="24.870834"
         cy="144.46249"
         cx="102.65833"
         id="circle874"
         style="fill:url(#radialGradient882);fill-opacity:1;stroke-width:1.38171;stroke-linecap:round;stroke-linejoin:round" />
      <circle
         style="fill:url(#radialGradient898);fill-opacity:1;stroke-width:1.38171;stroke-linecap:round;stroke-linejoin:round"
         id="circle890"
         cx="102.65833"
         cy="144.46249"
         r="24.870834" />
      <circle
         r="24.870834"
         cy="144.46249"
         cx="102.65833"
         id="circle900"
         style="fill:url(#radialGradient908);fill-opacity:1;stroke-width:1.38171;stroke-linecap:round;stroke-linejoin:round" />
      <path
         sodipodi:type="star"
         style="opacity:0.465574;fill:#ffffff;fill-opacity:1;stroke:none;stroke-width:1.21618;stroke-linecap:round;stroke-linejoin:round;stroke-miterlimit:4;stroke-dasharray:none"
         id="path886"
         sodipodi:sides="100"
         sodipodi:cx="102.65833"
         sodipodi:cy="144.46249"
         sodipodi:r1="21.224806"
         sodipodi:r2="11.887284"
         sodipodi:arg1="1.0471976"
         sodipodi:arg2="1.0786135"
         inkscape:flatsided="false"
         inkscape:rounded="0"
         inkscape:randomized="0"
         d="m 113.27073,162.84372 -4.99505,-7.90492 3.81995,8.535 -4.48885,-8.20296 3.27649,8.75802 -3.96492,-8.46863 2.72011,8.94647 -3.42534,-8.70088 2.15298,9.09961 -2.87225,-8.89879 1.57737,9.21685 -2.30783,-9.06158 0.99553,9.2977 -1.7343,-9.18861 0.40976,9.34186 -1.15392,-9.27937 -0.17763,9.34915 -0.56898,-9.33351 -0.76432,9.31955 0.0182,-9.35083 -1.34799,9.25318 0.6053,-9.33123 -1.926342,9.15027 1.190022,-9.27481 -2.497091,9.01126 1.770048,-9.18179 -3.057989,8.83668 2.343085,-9.05252 -3.606815,8.62723 2.906874,-8.88754 -4.141406,8.38374 3.459191,-8.68748 -4.659653,8.10715 3.997856,-8.45313 -5.159511,7.79857 4.520745,-8.18542 -5.639007,7.45922 5.025791,-7.88542 -6.096247,7.09042 5.511003,-7.55428 -6.529429,6.69365 5.974465,-7.19334 -6.936842,6.27045 6.414349,-6.804 -7.316878,5.82251 6.828919,-6.38782 -7.668039,5.35159 7.216538,-5.94642 -7.988936,4.85955 7.575676,-5.48155 -8.278306,4.34833 7.904917,-4.99506 -8.535004,3.81995 8.202961,-4.48885 -8.758019,3.2765 8.468631,-3.96492 -8.94647,2.7201 8.70088,-3.42534 -9.099613,2.15298 8.89879,-2.87225 -9.216844,1.57737 9.06158,-2.30783 -9.297701,0.99553 9.188609,-1.7343 -9.341863,0.40976 9.279375,-1.15391 -9.349158,-0.17764 9.333518,-0.56898 -9.319555,-0.76432 9.350827,0.0182 -9.253173,-1.34799 9.331233,0.6053 -9.150273,-1.92634 9.274812,1.19002 -9.011261,-2.49709 9.181788,1.77005 -8.836685,-3.05799 9.052527,2.34308 -8.627235,-3.60681 8.887541,2.90687 -8.383738,-4.1414 8.68748,3.45919 -8.107154,-4.65966 8.453133,3.99786 -7.798574,-5.15951 8.185425,4.52074 -7.459217,-5.639 7.885412,5.02579 -7.090421,-6.09625 7.55428,5.511 -6.693643,-6.52942 7.193335,5.97446 -6.270449,-6.93684 6.804001,6.41435 -5.822508,-7.31688 6.387815,6.82892 -5.351588,-7.66804 5.946418,7.21654 -4.859547,-7.98894 5.481554,7.57568 -4.348329,-8.27831 4.995057,7.90492 -3.81995,-8.535 4.488847,8.20296 -3.276494,-8.75802 3.96492,8.46863 -2.720108,-8.94647 3.425347,8.70088 -2.152987,-9.09961 2.872255,8.89878 -1.577369,-9.21684 2.307831,9.06158 -0.99553,-9.2977 1.73429,9.18861 -0.40975,-9.34186 1.15391,9.27937 0.17764,-9.34916 0.56897,9.33352 0.76433,-9.31955 -0.0182,9.35082 1.34799,-9.25317 -0.60531,9.33123 1.92635,-9.15027 -1.19003,9.27481 2.4971,-9.01126 -1.77005,9.18179 3.05799,-8.83669 -2.34309,9.05253 3.60682,-8.62723 -2.90688,8.88754 4.14141,-8.38374 -3.45919,8.68748 4.65965,-8.10715 -3.99785,8.45313 5.15951,-7.79858 -4.52075,8.18543 5.63901,-7.45922 -5.02579,7.88541 6.09624,-7.09042 -5.511,7.55428 6.52943,-6.69364 -5.97446,7.19334 6.93684,-6.27045 -6.41435,6.804 7.31688,-5.82251 -6.82892,6.38781 7.66804,-5.35158 -7.21654,5.94641 7.98894,-4.85954 -7.57568,5.48155 8.2783,-4.34833 -7.90491,4.99506 8.535,-3.81995 -8.20296,4.48885 8.75802,-3.2765 -8.46863,3.96492 8.94647,-2.72011 -8.70088,3.42535 9.09961,-2.15299 -8.89879,2.87226 9.21685,-1.57737 -9.06158,2.30783 9.2977,-0.99553 -9.18861,1.73429 9.34186,-0.40975 -9.27937,1.15391 9.34915,0.17764 -9.33351,0.56898 9.31955,0.76432 -9.35083,-0.0182 9.25318,1.34799 -9.33124,-0.60531 9.15028,1.92635 -9.27482,-1.19003 9.01127,2.4971 -9.18179,-1.77005 8.83668,3.05799 -9.05252,-2.34309 8.62723,3.60682 -8.88754,-2.90688 8.38374,4.14141 -8.68748,-3.45919 8.10715,4.65965 -8.45313,-3.99785 7.79857,5.15951 -8.18542,-4.52075 7.45921,5.63901 -7.88541,-5.02579 7.09042,6.09625 -7.55428,-5.51101 6.69365,6.52943 -7.19334,-5.97446 6.27045,6.93684 -6.804,-6.41435 5.82251,7.31688 -6.38782,-6.82892 5.35159,7.66804 -5.94642,-7.21654 4.85955,7.98894 -5.48155,-7.57568 z"
         inkscape:transform-center-x="-0.68558569"
         inkscape:transform-center-y="-1.3636538" />
      <circle
         r="9.5249996"
         cy="144.46249"
         cx="102.65833"
         id="circle888"
         style="fill:#000000;fill-opacity:1;stroke-width:0.529166;stroke-linecap:round;stroke-linejoin:round" />
      <circle
         cy="135.88852"
         cx="102.65833"
         id="circle910"
         style="opacity:0.704918;fill:url(#linearGradient918);fill-opacity:1;stroke-width:0.910066;stroke-linecap:round;stroke-linejoin:round"
         r="16.381193" />
      <circle
         r="4.4075174"
         cy="136.97894"
         cx="107.52264"
         id="circle920"
         style="opacity:0.806557;fill:#ffffff;fill-opacity:1;stroke-width:0.244861;stroke-linecap:round;stroke-linejoin:round" />
      <circle
         style="opacity:0.911475;fill:#ffffff;fill-opacity:1;stroke-width:0.161711;stroke-linecap:round;stroke-linejoin:round"
         id="circle922"
         cx="95.736053"
         cy="150.8235"
         r="2.9108078" />
    </g>
  </g>
</svg>
