<?xml version="1.0" encoding="UTF-8" standalone="no"?>
<svg
   xmlns:dc="http://purl.org/dc/elements/1.1/"
   xmlns:cc="http://creativecommons.org/ns#"
   xmlns:rdf="http://www.w3.org/1999/02/22-rdf-syntax-ns#"
   xmlns:svg="http://www.w3.org/2000/svg"
   xmlns="http://www.w3.org/2000/svg"
   xmlns:sodipodi="http://sodipodi.sourceforge.net/DTD/sodipodi-0.dtd"
   xmlns:inkscape="http://www.inkscape.org/namespaces/inkscape"
   sodipodi:docname="pencil.svg"
   inkscape:version="1.0 (4035a4fb49, 2020-05-01)"
   id="svg8"
   version="1.1"
   viewBox="0 0 127 127"
   height="480"
   width="480">
  <defs
     id="defs2">
    <filter
       height="2.3203717"
       y="-0.66018585"
       width="1.142965"
       x="-0.071482481"
       id="filter1291"
       style="color-interpolation-filters:sRGB"
       inkscape:collect="always">
      <feGaussianBlur
         id="feGaussianBlur1293"
         stdDeviation="2.872146"
         inkscape:collect="always" />
    </filter>
  </defs>
  <sodipodi:namedview
     inkscape:window-maximized="1"
     inkscape:window-y="-9"
     inkscape:window-x="-9"
     inkscape:window-height="1001"
     inkscape:window-width="1920"
     units="px"
     showgrid="false"
     inkscape:document-rotation="0"
     inkscape:current-layer="layer1"
     inkscape:document-units="px"
     inkscape:cy="235.19311"
     inkscape:cx="243.08457"
     inkscape:zoom="1"
     inkscape:pageshadow="2"
     inkscape:pageopacity="0.0"
     borderopacity="1.0"
     bordercolor="#666666"
     pagecolor="#ffffff"
     id="base"
     inkscape:object-paths="false"
     showguides="true"
     inkscape:guide-bbox="true"
     inkscape:object-nodes="false" />
  <metadata
     id="metadata5">
    <rdf:RDF>
      <cc:Work
         rdf:about="">
        <dc:format>image/svg+xml</dc:format>
        <dc:type
           rdf:resource="http://purl.org/dc/dcmitype/StillImage" />
        <dc:title></dc:title>
      </cc:Work>
    </rdf:RDF>
  </metadata>
  <g
     id="layer1"
     inkscape:groupmode="layer"
     inkscape:label="Layer 1">
    <path
       transform="matrix(1.1770475,0,0,1.1770475,4.2882174,-1.009197)"
       d="m 26.231473,89.827073 a 1.6834783,19.108185 86.398214 0 0 -14.542781,1.018188 1.6834783,19.108185 86.398214 0 0 -9.404077,1.574646 l 3.223059,0.349039 a 1.6834783,19.108185 86.398214 0 0 1.243335,1.208654 1.6834783,19.108185 86.398214 0 0 0.025838,0.0028 l 49.499821,5.359685 0.03049,-8.39e-4 a 1.6834783,19.108184 86.398214 0 0 5.23999,0.188228 l 23.584607,0.470066 a 2.6861202,30.488589 86.398214 0 1 -5.16e-4,5.6e-5 l 13.5847,0.270704 -6.841442,-4.024576 -5.19e-4,5.6e-5 a 1.6834783,19.108184 86.398214 0 0 -1.525487,-0.538218 l -46.47675,-5.032301 a 1.6834783,19.108185 86.398214 0 0 -0.608232,-0.07615 1.6834783,19.108185 86.398214 0 0 -0.702281,-0.0658 1.6834783,19.108184 86.398214 0 1 -5.16e-4,0 l -0.0015,-1.68e-4 a 1.6834783,19.108185 86.398214 0 0 -10.458278,-0.0686 z m 18.279505,0.958877 a 1.6834783,19.108184 86.398214 0 1 0.03772,0.0082 1.6834783,19.108185 86.398214 0 0 -0.03772,-0.0082 z m 0.355018,0.09036 a 1.6834783,19.108184 86.398214 0 1 0.03049,0.0094 1.6834783,19.108185 86.398214 0 0 -0.03049,-0.0094 z m 0.08526,0.02725 a 1.6834783,19.108184 86.398214 0 1 0.03979,0.01382 1.6834783,19.108184 86.398214 0 1 0.02429,0.009 1.6834783,19.108185 86.398214 0 0 -0.02429,-0.009 1.6834783,19.108185 86.398214 0 0 -0.03979,-0.01382 z m 0.356569,0.175583 a 1.6834783,19.108184 86.398214 0 1 0.01292,0.0113 1.6834783,19.108185 86.398214 0 0 -0.01292,-0.0113 z m 0.03359,0.03117 a 1.6834783,19.108184 86.398214 0 1 0.01396,0.01584 1.6834783,19.108184 86.398214 0 1 0.01188,0.01589 1.6834783,19.108184 86.398214 0 1 0.01033,0.01606 1.6834783,19.108184 86.398214 0 1 0.0083,0.01617 1.6834783,19.108184 86.398214 0 1 0.0057,0.01438 1.6834783,19.108185 86.398214 0 0 -0.0057,-0.01438 1.6834783,19.108185 86.398214 0 0 -0.0083,-0.01617 1.6834783,19.108185 86.398214 0 0 -0.01033,-0.01606 1.6834783,19.108185 86.398214 0 0 -0.01188,-0.01589 1.6834783,19.108185 86.398214 0 0 -0.01396,-0.01584 z m 0.05116,0.08091 a 1.6834783,19.108184 86.398214 0 1 0.0041,0.01421 1.6834783,19.108185 86.398214 0 0 -0.0041,-0.01421 z m 0.0047,0.01623 a 1.6834783,19.108184 86.398214 0 1 0.0026,0.01539 1.6834783,19.108185 86.398214 0 0 -0.0026,-0.01539 z m -0.04289,0.152474 a 1.6834783,19.108184 86.398214 0 1 -0.01085,0.0136 1.6834783,19.108185 86.398214 0 0 0.01085,-0.0136 z m -0.04806,0.05293 a 1.6834783,19.108184 86.398214 0 1 -0.01964,0.01785 1.6834783,19.108185 86.398214 0 0 0.01964,-0.01785 z m -0.176734,0.126903 a 1.6834783,19.108184 86.398214 0 1 -0.03049,0.01735 1.6834783,19.108185 86.398214 0 0 0.03049,-0.01735 z m -0.06718,0.0371 a 1.6834783,19.108184 86.398214 0 1 -0.03617,0.01863 1.6834783,19.108184 86.398214 0 1 -0.03824,0.01874 1.6834783,19.108184 86.398214 0 1 -0.03979,0.01886 1.6834783,19.108184 86.398214 0 1 -0.04186,0.01886 1.6834783,19.108184 86.398214 0 1 -0.02739,0.01197 1.6834783,19.108185 86.398214 0 0 0.02739,-0.01197 1.6834783,19.108185 86.398214 0 0 0.04186,-0.01886 1.6834783,19.108185 86.398214 0 0 0.03979,-0.01886 1.6834783,19.108185 86.398214 0 0 0.03824,-0.01874 1.6834783,19.108185 86.398214 0 0 0.03617,-0.01863 z M 44.5627,91.78635 a 1.6834783,19.108184 86.398214 0 1 -0.05581,0.01947 h -5.16e-4 a 1.6834783,19.108185 86.398214 0 0 0.05633,-0.01947 z m -10.514086,2.122825 a 1.6834783,19.108184 86.398214 0 1 -0.03772,0.0034 1.6834783,19.108185 86.398214 0 0 0.03772,-0.0034 z m -27.0293573,0.09585 a 1.6834783,19.108185 86.398214 0 0 0.061495,0.0058 1.6834783,19.108184 86.398214 0 1 -0.061495,-0.0058 z m 0.381372,0.03402 a 1.6834783,19.108185 86.398214 0 0 0.084749,0.0069 1.6834783,19.108184 86.398214 0 1 -0.084749,-0.0069 z m 0.1033529,0.0084 a 1.6834783,19.108185 86.398214 0 0 0.095601,0.0074 1.6834783,19.108185 86.398214 0 0 0.1023194,0.0077 1.6834783,19.108185 86.398214 0 0 0.065629,0.0048 1.6834783,19.108184 86.398214 0 1 -0.065629,-0.0048 1.6834783,19.108184 86.398214 0 1 -0.1023194,-0.0077 1.6834783,19.108184 86.398214 0 1 -0.095601,-0.0074 z m 0.6294189,0.04432 a 1.6834783,19.108185 86.398214 0 0 0.1007692,0.0061 1.6834783,19.108184 86.398214 0 1 -0.1007692,-0.0061 z m 0.1038696,0.0063 a 1.6834783,19.108185 86.398214 0 0 0.07028,0.0041 1.6834783,19.108184 86.398214 0 1 -0.07028,-0.0041 z m 0.3457154,0.0193 a 1.6834783,19.108185 86.398214 0 0 0.1085204,0.0055 1.6834783,19.108185 86.398214 0 0 0.1173057,0.0058 1.6834783,19.108185 86.398214 0 0 0.1188559,0.0055 1.6834783,19.108185 86.398214 0 0 0.1193723,0.0053 1.6834783,19.108184 86.398214 0 1 -0.1193723,-0.0053 1.6834783,19.108184 86.398214 0 1 -0.1188559,-0.0055 1.6834783,19.108184 86.398214 0 1 -0.1173057,-0.0058 1.6834783,19.108184 86.398214 0 1 -0.1085204,-0.0055 z m 8.6831905,0.01595 a 1.6834783,19.108184 86.398214 0 1 -0.120406,0.0037 1.6834783,19.108184 86.398214 0 1 -0.169499,0.005 1.6834783,19.108185 86.398214 0 0 0.169499,-0.005 1.6834783,19.108185 86.398214 0 0 0.120406,-0.0037 z m -8.2175858,0.0063 a 1.6834783,19.108185 86.398214 0 0 0.1214396,0.0051 1.6834783,19.108185 86.398214 0 0 0.079065,0.0032 1.6834783,19.108184 86.398214 0 1 -0.079065,-0.0032 1.6834783,19.108184 86.398214 0 1 -0.1214396,-0.0051 z m 0.3787881,0.01522 a 1.6834783,19.108185 86.398214 0 0 0.070797,0.0026 1.6834783,19.108184 86.398214 0 1 -0.070797,-0.0026 z m 1.8918747,0.04571 a 1.6834783,19.108185 86.398214 0 0 0.07235,8.95e-4 1.6834783,19.108184 86.398214 0 1 -0.07235,-8.95e-4 z m 0.720369,0.0067 a 1.6834783,19.108185 86.398214 0 0 0.106453,5.59e-4 1.6834783,19.108184 86.398214 0 1 -0.106453,-5.59e-4 z m 13.885457,0.271543 a 1.6834783,19.108184 86.398214 0 1 -0.187069,0.0095 1.6834783,19.108185 86.398214 0 0 0.187069,-0.0095 z m -1.157552,0.05579 a 1.6834783,19.108184 86.398214 0 1 -0.146761,0.0066 1.6834783,19.108185 86.398214 0 0 0.146761,-0.0066 z m -0.403076,0.0179 a 1.6834783,19.108184 86.398214 0 1 -0.08992,0.0039 1.6834783,19.108184 86.398214 0 1 -0.02326,9.52e-4 1.6834783,19.108185 86.398214 0 0 0.113172,-0.0049 z"
       style="fill:#000000;fill-opacity:1;stroke:none;stroke-width:0.0870622px;stroke-linecap:butt;stroke-linejoin:miter;stroke-opacity:1;filter:url(#filter1291)"
       id="path941" />
    <g
       transform="matrix(0.83229827,-0.83229827,0.83229827,0.83229827,-36.941369,62.577216)"
       id="g939">
      <path
         id="path895"
         d="M 61.55206,123.84831 40.107753,92.728073 h 42.889334 z"
         style="fill:#ffc39b;fill-opacity:1;stroke:none;stroke-width:0.264583px;stroke-linecap:butt;stroke-linejoin:miter;stroke-opacity:1" />
      <path
         id="path857"
         style="fill:#ffa468;fill-opacity:1;stroke:none;stroke-width:0.999999px;stroke-linecap:butt;stroke-linejoin:miter;stroke-opacity:1"
         d="m 151.58789,350.46875 81.05078,117.61914 V 350.46875 Z"
         transform="scale(0.26458333)" />
      <path
         id="path850"
         style="fill:#666666;fill-opacity:1;stroke:none;stroke-width:0.999999px;stroke-linecap:butt;stroke-linejoin:miter;stroke-opacity:1"
         d="m 203.01562,425.10156 29.62305,42.98633 29.6211,-42.98437 a 144.41519,74.815102 0 0 1 -29.6211,1.58984 144.41519,74.815102 0 0 1 -29.62305,-1.5918 z"
         transform="scale(0.26458333)" />
      <path
         id="path863"
         style="fill:#404040;fill-opacity:1;stroke:none;stroke-width:0.999999px;stroke-linecap:butt;stroke-linejoin:miter;stroke-opacity:1"
         d="m 203.01562,425.10156 29.62305,42.98633 v -41.39453 a 144.41519,74.815101 0 0 1 -29.62305,-1.5918 z"
         transform="scale(0.26458333)" />
      <path
         id="path833"
         style="fill:#ffc39b;fill-opacity:1;stroke-width:1.5235;stroke-linecap:round;stroke-linejoin:round"
         d="M 44.618981,8.9655222 A 23.94735,12.406059 0 0 0 37.60494,17.73793 23.94735,12.406059 0 0 0 44.618981,26.510339 L 61.552314,17.73793 Z" />
      <path
         id="circle839"
         style="fill:#ffc39b;fill-opacity:1;stroke-width:1.5235;stroke-linecap:round;stroke-linejoin:round"
         d="M 61.552314,24.379578 44.618981,33.151987 A 23.94735,12.406059 0 0 0 61.552314,36.785652 23.94735,12.406059 0 0 0 78.485131,33.15172 Z" />
      <path
         id="circle843"
         style="fill:#ffc39b;fill-opacity:1;stroke-width:1.5235;stroke-linecap:round;stroke-linejoin:round"
         d="m 78.485131,12.707563 -16.932817,8.77214 16.932817,8.772142 a 23.94735,12.406059 0 0 0 7.014559,-8.772142 23.94735,12.406059 0 0 0 -7.014559,-8.77214 z" />
      <path
         id="circle847"
         style="fill:#ffc39b;fill-opacity:1;stroke-width:1.5235;stroke-linecap:round;stroke-linejoin:round"
         d="M 61.552314,0.77330334 A 23.94735,12.406059 0 0 0 44.618981,4.4069668 L 61.552314,13.179375 78.485131,4.4072348 A 23.94735,12.406059 0 0 0 61.552314,0.77330334 Z" />
      <path
         id="circle835"
         style="fill:#ff0000;stroke-width:0.57131;stroke-linecap:round;stroke-linejoin:round"
         d="m 55.20283,14.448277 a 8.9802559,4.6522722 0 0 0 -2.630845,3.289653 8.9802559,4.6522722 0 0 0 2.630329,3.289654 l 6.35,-3.289654 z" />
      <path
         id="circle841"
         style="fill:#2a88ff;fill-opacity:1;stroke-width:0.57131;stroke-linecap:round;stroke-linejoin:round"
         d="m 61.552314,24.379578 -6.35,3.289654 a 8.9802559,4.6522722 0 0 0 6.35,1.362658 8.9802559,4.6522722 0 0 0 6.35,-1.362658 z" />
      <path
         id="circle845"
         style="fill:#2ca05a;stroke-width:0.57131;stroke-linecap:round;stroke-linejoin:round"
         d="m 67.901798,18.190319 -6.349484,3.289384 6.35,3.289654 a 8.9802559,4.6522722 0 0 0 2.630331,-3.289654 8.9802559,4.6522722 0 0 0 -2.630847,-3.289384 z" />
      <path
         id="circle849"
         style="fill:#ffa62a;fill-opacity:1;stroke-width:0.57131;stroke-linecap:round;stroke-linejoin:round"
         d="m 61.552314,8.5270662 a 8.9802559,4.6522722 0 0 0 -6.349484,1.362656 l 6.349484,3.2896528 6.349484,-3.2893838 a 8.9802559,4.6522722 0 0 0 -6.349484,-1.362925 z" />
      <path
         id="path839"
         d="M 44.618981,4.4069667 61.552314,13.179375 V 17.73793 L 44.618981,8.9655222 Z"
         style="fill:#ffa468;fill-opacity:1;stroke:none;stroke-width:0.264583px;stroke-linecap:butt;stroke-linejoin:miter;stroke-opacity:1" />
      <path
         id="path841"
         d="m 55.20283,9.8897222 6.349484,3.2896528 V 17.73793 L 55.20283,14.448277 Z"
         style="fill:#e58600;fill-opacity:1;stroke:none;stroke-width:0.264583px;stroke-linecap:butt;stroke-linejoin:miter;stroke-opacity:1" />
      <path
         id="path843"
         d="m 78.485131,4.4072347 v 8.3003283 l -16.932817,8.77214 v -8.300328 z"
         style="fill:#ffd6bb;fill-opacity:1;stroke:none;stroke-width:0.264583px;stroke-linecap:butt;stroke-linejoin:miter;stroke-opacity:1" />
      <path
         id="path845"
         d="m 67.901798,9.8899912 v 8.3003278 l -6.349484,3.289384 v -8.300328 z"
         style="fill:#ffb64f;fill-opacity:1;stroke:none;stroke-width:0.264583px;stroke-linecap:butt;stroke-linejoin:miter;stroke-opacity:1" />
      <path
         id="path847"
         d="m 61.552314,17.73793 v 6.641648 l -16.933333,8.772409 v -6.641648 z"
         style="fill:#ffa468;fill-opacity:1;stroke:none;stroke-width:0.264583px;stroke-linecap:butt;stroke-linejoin:miter;stroke-opacity:1" />
      <path
         id="path849"
         d="m 61.552314,17.73793 v 6.641648 l -6.35,3.289655 v -6.641649 z"
         style="fill:#d20401;fill-opacity:1;stroke:none;stroke-width:0.264583px;stroke-linecap:butt;stroke-linejoin:miter;stroke-opacity:1" />
      <path
         id="path851"
         d="M 78.485131,30.251844 V 33.15172 L 61.552314,24.379578 v -2.899875 z"
         style="fill:#ffd6bb;fill-opacity:1;stroke:none;stroke-width:0.264583px;stroke-linecap:butt;stroke-linejoin:miter;stroke-opacity:1" />
      <path
         id="path853"
         d="m 67.902314,24.769357 v 2.899876 l -6.35,-3.289655 v -2.899875 z"
         style="fill:#47cd7c;fill-opacity:1;stroke:none;stroke-width:0.264583px;stroke-linecap:butt;stroke-linejoin:miter;stroke-opacity:1" />
      <path
         d="m 37.60494,17.774186 v 70.003477 l 0.02687,0.01602 a 23.947349,12.406059 0 0 0 6.98717,8.18503 V 26.510086 a 23.947349,12.406059 0 0 1 -7.01404,-8.7359 z"
         style="fill:#ff0000;fill-opacity:1;stroke:none;stroke-width:0.264583px;stroke-linecap:butt;stroke-linejoin:miter;stroke-opacity:1"
         id="path859" />
      <path
         d="M 78.485131,33.151543 A 23.947349,12.406059 0 0 1 61.552314,36.785428 23.947349,12.406059 0 0 1 44.618981,33.152059 V 95.978714 A 23.947349,12.406059 0 0 0 61.552314,99.6126 23.947349,12.406059 0 0 0 78.485131,95.97923 Z"
         style="fill:#2a88ff;fill-opacity:1;stroke:none;stroke-width:0.264583px;stroke-linecap:butt;stroke-linejoin:miter;stroke-opacity:1"
         id="path871" />
      <path
         d="m 85.43251,20.550243 -5.16e-4,5.17e-4 a 23.947349,12.406059 0 0 1 5.16e-4,0.0026 z m 0,1.856735 a 23.947349,12.406059 0 0 1 -6.947379,7.844999 V 95.97923 a 23.947349,12.406059 0 0 0 6.947379,-7.844483 z"
         style="fill:#2ca05a;fill-opacity:1;stroke:none;stroke-width:0.264583px;stroke-linecap:butt;stroke-linejoin:miter;stroke-opacity:1"
         id="path883" />
      <path
         id="path868"
         style="fill:#0063e0;fill-opacity:1;stroke:none;stroke-width:0.264583px;stroke-linecap:butt;stroke-linejoin:miter;stroke-opacity:1"
         d="m 44.618981,33.151982 v 62.826655 a 23.947349,12.406059 0 0 0 16.933333,3.633886 V 36.785351 A 23.947349,12.406059 0 0 1 44.618981,33.151982 Z" />
    </g>
  </g>
</svg>
