<?xml version="1.0" encoding="UTF-8" standalone="no"?>
<svg
   xmlns:dc="http://purl.org/dc/elements/1.1/"
   xmlns:cc="http://creativecommons.org/ns#"
   xmlns:rdf="http://www.w3.org/1999/02/22-rdf-syntax-ns#"
   xmlns:svg="http://www.w3.org/2000/svg"
   xmlns="http://www.w3.org/2000/svg"
   xmlns:sodipodi="http://sodipodi.sourceforge.net/DTD/sodipodi-0.dtd"
   xmlns:inkscape="http://www.inkscape.org/namespaces/inkscape"
   width="400"
   height="400"
   viewBox="0 0 105.83333 105.83334"
   version="1.1"
   id="svg8"
   inkscape:version="1.0 (4035a4fb49, 2020-05-01)"
   sodipodi:docname="book.svg">
  <defs
     id="defs2">
    <filter
       height="1.1469579"
       y="-0.073478962"
       width="1.6971848"
       x="-0.34859239"
       id="filter1607"
       style="color-interpolation-filters:sRGB"
       inkscape:collect="always">
      <feGaussianBlur
         id="feGaussianBlur1609"
         stdDeviation="1.1137736"
         inkscape:collect="always" />
    </filter>
    <filter
       height="1.2169995"
       y="-0.10849976"
       width="1.3588883"
       x="-0.17944417"
       id="filter1943"
       style="color-interpolation-filters:sRGB"
       inkscape:collect="always">
      <feGaussianBlur
         id="feGaussianBlur1945"
         stdDeviation="3.7971029"
         inkscape:collect="always" />
    </filter>
  </defs>
  <sodipodi:namedview
     id="base"
     pagecolor="#ffffff"
     bordercolor="#666666"
     borderopacity="1.0"
     inkscape:pageopacity="0.0"
     inkscape:pageshadow="2"
     inkscape:zoom="1.4"
     inkscape:cx="248.98884"
     inkscape:cy="176.2052"
     inkscape:document-units="mm"
     inkscape:current-layer="layer1"
     inkscape:document-rotation="0"
     showgrid="false"
     inkscape:window-width="1920"
     inkscape:window-height="1001"
     inkscape:window-x="-9"
     inkscape:window-y="-9"
     inkscape:window-maximized="1"
     inkscape:object-paths="false"
     inkscape:object-nodes="false"
     units="px" />
  <metadata
     id="metadata5">
    <rdf:RDF>
      <cc:Work
         rdf:about="">
        <dc:format>image/svg+xml</dc:format>
        <dc:type
           rdf:resource="http://purl.org/dc/dcmitype/StillImage" />
        <dc:title />
      </cc:Work>
    </rdf:RDF>
  </metadata>
  <g
     inkscape:label="Layer 1"
     inkscape:groupmode="layer"
     id="layer1">
    <g
       style="opacity:0.337705;fill:#000000;stroke:#000000;filter:url(#filter1943)"
       id="g1489"
       transform="matrix(0.9365815,0,0,-0.35697426,5.0876802,104.19071)">
      <path
         style="color:#000000;font-style:normal;font-variant:normal;font-weight:normal;font-stretch:normal;font-size:medium;line-height:normal;font-family:sans-serif;font-variant-ligatures:normal;font-variant-position:normal;font-variant-caps:normal;font-variant-numeric:normal;font-variant-alternates:normal;font-variant-east-asian:normal;font-feature-settings:normal;font-variation-settings:normal;text-indent:0;text-align:start;text-decoration:none;text-decoration-line:none;text-decoration-style:solid;text-decoration-color:#000000;letter-spacing:normal;word-spacing:normal;text-transform:none;writing-mode:lr-tb;direction:ltr;text-orientation:mixed;dominant-baseline:auto;baseline-shift:baseline;text-anchor:start;white-space:normal;shape-padding:0;shape-margin:0;inline-size:0;clip-rule:nonzero;display:inline;overflow:visible;visibility:visible;isolation:auto;mix-blend-mode:normal;color-interpolation:sRGB;color-interpolation-filters:linearRGB;solid-color:#000000;solid-opacity:1;vector-effect:none;fill:#000000;fill-opacity:1;fill-rule:nonzero;stroke:#000000;stroke-width:2.43859;stroke-linecap:round;stroke-linejoin:round;stroke-miterlimit:4;stroke-dasharray:none;stroke-dashoffset:0;stroke-opacity:1;color-rendering:auto;image-rendering:auto;shape-rendering:auto;text-rendering:auto;enable-background:accumulate;stop-color:#000000"
         d="m 23.887662,1.3920861 c -3.282891,0 -6.267628,0.6945704 -8.539334,1.9096688 -2.271706,1.2150974 -3.973178,3.0755612 -3.973178,5.39227 0,0.8721064 0.243466,1.6786261 0.665848,2.4111971 l 10.280874,64.723943 0.414607,2.610763 c 0.340477,-0.0989 0.695722,-0.187265 1.061402,-0.266482 0.08226,-0.01783 0.165914,-0.03442 0.249337,-0.0512 0.100005,-0.02009 0.200818,-0.03959 0.302442,-0.05811 0.06891,-0.01263 0.137319,-0.02576 0.206945,-0.0376 0.164674,-0.02802 0.331369,-0.05383 0.499862,-0.07764 0.514848,-0.07303 1.046743,-0.125729 1.592224,-0.155983 l 0.640843,4.77096 0.353168,2.618619 c 0.40308,0.08047 0.821824,0.137541 1.253584,0.169555 0.27658,0.02048 0.558177,0.03141 0.844218,0.03141 1.428349,-1.6e-5 2.761575,-0.263015 3.875539,-0.756816 0.939784,-0.416599 1.751377,-1.019639 2.230685,-1.876569 0.247101,-0.230584 0.387416,-0.553393 0.38746,-0.891369 v -0.253624 c 0.0093,-0.09156 0.02493,-0.182408 0.02501,-0.274576 v -0.0016 c -5.7e-5,-0.09177 -0.01577,-0.182221 -0.02501,-0.273378 v -0.0014 -71.3936167 l 0.1667,-0.9666284 -0.215519,-1.2790664 -0.02429,-0.03072 C 35.655049,5.6788747 34.247423,4.2754343 32.426996,3.3017199 30.155291,2.0866215 27.170553,1.3920511 23.887663,1.3920511 Z"
         id="path1467" />
      <path
         style="fill:#000000;stroke:#000000;stroke-width:2.51419;stroke-linecap:square;stroke-miterlimit:4;stroke-dasharray:none"
         d="m 40.879605,9.6213833 c -1.077711,0.01654 -2.218394,0.299113 -3.442945,0.9162587 v 68.176441 c 4.242815,-5.262066 8.316753,-6.17522 12.426415,-6.497468 3.989204,-0.312791 8.008745,-0.08313 12.296934,-2.750051 V 25.630759 c -2.069527,-0.523389 -3.90589,-1.678623 -5.601435,-3.140045 -2.488637,-2.14501 -4.678678,-4.948488 -6.871916,-7.390077 -2.193243,-2.44159 -4.388909,-4.518297 -6.878339,-5.2224787 -0.622355,-0.176045 -1.263578,-0.266985 -1.928714,-0.256775 z"
         id="path1469" />
      <path
         style="color:#000000;font-style:normal;font-variant:normal;font-weight:normal;font-stretch:normal;font-size:medium;line-height:normal;font-family:sans-serif;font-variant-ligatures:normal;font-variant-position:normal;font-variant-caps:normal;font-variant-numeric:normal;font-variant-alternates:normal;font-variant-east-asian:normal;font-feature-settings:normal;font-variation-settings:normal;text-indent:0;text-align:start;text-decoration:none;text-decoration-line:none;text-decoration-style:solid;text-decoration-color:#000000;letter-spacing:normal;word-spacing:normal;text-transform:none;writing-mode:lr-tb;direction:ltr;text-orientation:mixed;dominant-baseline:auto;baseline-shift:baseline;text-anchor:start;white-space:normal;shape-padding:0;shape-margin:0;inline-size:0;clip-rule:nonzero;display:inline;overflow:visible;visibility:visible;isolation:auto;mix-blend-mode:normal;color-interpolation:sRGB;color-interpolation-filters:linearRGB;solid-color:#000000;solid-opacity:1;vector-effect:none;fill:#000000;fill-opacity:1;fill-rule:nonzero;stroke:#000000;stroke-width:2.43859;stroke-linecap:round;stroke-linejoin:round;stroke-miterlimit:4;stroke-dasharray:none;stroke-dashoffset:0;stroke-opacity:1;color-rendering:auto;image-rendering:auto;shape-rendering:auto;text-rendering:auto;enable-background:accumulate;stop-color:#000000"
         d="m 33.795603,13.209692 v 67.84576 c 4e-6,0.07332 0.0066,0.146486 0.01976,0.218614 0.0036,0.02 0.0051,0.03768 0.0052,0.05527 -5.3e-5,0.01767 -0.0016,0.03535 -0.0052,0.05551 -0.0021,0.01109 -0.0039,0.02217 -0.0057,0.03334 -0.004,0.01052 -0.008,0.02105 -0.01167,0.03165 -0.07067,0.200049 -0.43542,0.621943 -1.169996,0.947571 -0.734577,0.325637 -1.768479,0.547481 -2.887484,0.547489 -0.410741,0 -0.805869,-0.03254 -1.180477,-0.08621 L 20.281887,14.25405 c 1.065823,0.784542 2.239756,1.619701 3.790525,1.619701 3.282892,0 6.082878,-0.571403 8.354583,-1.786502 0.489707,-0.261936 0.948155,-0.555922 1.368608,-0.877557 z"
         id="path1471" />
      <path
         style="color:#000000;font-style:normal;font-variant:normal;font-weight:normal;font-stretch:normal;font-size:medium;line-height:normal;font-family:sans-serif;font-variant-ligatures:normal;font-variant-position:normal;font-variant-caps:normal;font-variant-numeric:normal;font-variant-alternates:normal;font-variant-east-asian:normal;font-feature-settings:normal;font-variation-settings:normal;text-indent:0;text-align:start;text-decoration:none;text-decoration-line:none;text-decoration-style:solid;text-decoration-color:#000000;letter-spacing:normal;word-spacing:normal;text-transform:none;writing-mode:lr-tb;direction:ltr;text-orientation:mixed;dominant-baseline:auto;baseline-shift:baseline;text-anchor:start;white-space:normal;shape-padding:0;shape-margin:0;inline-size:0;clip-rule:nonzero;display:inline;overflow:visible;visibility:visible;isolation:auto;mix-blend-mode:normal;color-interpolation:sRGB;color-interpolation-filters:linearRGB;solid-color:#000000;solid-opacity:1;vector-effect:none;fill:#000000;fill-opacity:1;fill-rule:nonzero;stroke:#000000;stroke-width:2.43859;stroke-linecap:round;stroke-linejoin:round;stroke-miterlimit:4;stroke-dasharray:none;stroke-dashoffset:0;stroke-opacity:1;color-rendering:auto;image-rendering:auto;shape-rendering:auto;text-rendering:auto;enable-background:accumulate;stop-color:#000000"
         d="m 23.580695,8.1189092 v 3.7983798 c -0.969495,-0.132497 -1.858076,-0.35063 -2.466924,-0.67966 -0.862847,-0.466293 -1.122587,-0.93822 -1.122606,-1.21953 -2.2e-5,-0.2799267 0.256793,-0.7479974 1.112605,-1.2133381 0.609446,-0.331381 1.50159,-0.5525437 2.476925,-0.6858517 z"
         id="path1473" />
      <path
         style="color:#000000;font-style:normal;font-variant:normal;font-weight:normal;font-stretch:normal;font-size:medium;line-height:normal;font-family:sans-serif;font-variant-ligatures:normal;font-variant-position:normal;font-variant-caps:normal;font-variant-numeric:normal;font-variant-alternates:normal;font-variant-east-asian:normal;font-feature-settings:normal;font-variation-settings:normal;text-indent:0;text-align:start;text-decoration:none;text-decoration-line:none;text-decoration-style:solid;text-decoration-color:#000000;letter-spacing:normal;word-spacing:normal;text-transform:none;writing-mode:lr-tb;direction:ltr;text-orientation:mixed;dominant-baseline:auto;baseline-shift:baseline;text-anchor:start;white-space:normal;shape-padding:0;shape-margin:0;inline-size:0;clip-rule:nonzero;display:inline;overflow:visible;visibility:visible;isolation:auto;mix-blend-mode:normal;color-interpolation:sRGB;color-interpolation-filters:linearRGB;solid-color:#000000;solid-opacity:1;vector-effect:none;fill:#000000;fill-opacity:1;fill-rule:nonzero;stroke:#000000;stroke-width:2.43859;stroke-linecap:round;stroke-linejoin:round;stroke-miterlimit:4;stroke-dasharray:none;stroke-dashoffset:0;stroke-opacity:1;color-rendering:auto;image-rendering:auto;shape-rendering:auto;text-rendering:auto;enable-background:accumulate;stop-color:#000000"
         d="m 23.887662,4.0128496 c 2.904059,0 5.520105,0.6464977 7.302894,1.6000811 1.782788,0.9535854 2.588854,2.0885058 2.588854,3.0810942 0,0.9925874 -0.806066,2.1286991 -2.588854,3.0822841 -1.333367,0.713196 -3.133101,1.254315 -5.170562,1.481964 V 5.5429177 l -1.217863,-0.0017 c -0.01362,-2.2e-5 -0.02686,-2.2e-5 -0.04049,0 h -0.0045 -0.0045 c -1.836796,0.0161 -3.505804,0.4088497 -4.814539,1.1204634 -1.308733,0.7116124 -2.385123,1.8576708 -2.385001,3.3563859 1.8e-5,0.257537 0.03384,0.503911 0.09311,0.740148 l 8.652883,64.430071 c -0.539309,0.03378 -1.068143,0.08686 -1.584842,0.158126 l -2.45e-4,-0.0023 -10.327549,-65.018347 c -0.02425,-0.152774 -0.07735,-0.29954 -0.15646,-0.4324677 C 13.976931,9.4680986 13.872203,9.0784346 13.872069,8.6947249 v -2.44e-4 -2.43e-4 c 5.9e-5,-0.171961 0.02216,-0.3439807 0.06835,-0.5212947 8.3e-5,-3.66e-4 -8.3e-5,-6e-4 0,-9.64e-4 l 2.44e-4,-5.07e-4 c 0.06997,-0.268079 0.20349,-0.5470407 0.394603,-0.8277844 l 0.104306,0.04477 C 14.850066,6.7776631 15.552724,6.1648824 16.584765,5.6128607 18.367554,4.6592773 20.983602,4.0127786 23.88766,4.0127786 Z"
         id="path1475" />
      <path
         id="path1477"
         style="color:#000000;font-style:normal;font-variant:normal;font-weight:normal;font-stretch:normal;font-size:medium;line-height:normal;font-family:sans-serif;font-variant-ligatures:normal;font-variant-position:normal;font-variant-caps:normal;font-variant-numeric:normal;font-variant-alternates:normal;font-variant-east-asian:normal;font-feature-settings:normal;font-variation-settings:normal;text-indent:0;text-align:start;text-decoration:none;text-decoration-line:none;text-decoration-style:solid;text-decoration-color:#000000;letter-spacing:normal;word-spacing:normal;text-transform:none;writing-mode:lr-tb;direction:ltr;text-orientation:mixed;dominant-baseline:auto;baseline-shift:baseline;text-anchor:start;white-space:normal;shape-padding:0;shape-margin:0;inline-size:0;clip-rule:nonzero;display:inline;overflow:visible;visibility:visible;isolation:auto;mix-blend-mode:normal;color-interpolation:sRGB;color-interpolation-filters:linearRGB;solid-color:#000000;solid-opacity:1;vector-effect:none;fill:#000000;fill-opacity:1;fill-rule:nonzero;stroke:#000000;stroke-width:2.43858;stroke-linecap:round;stroke-linejoin:round;stroke-miterlimit:4;stroke-dasharray:none;stroke-dashoffset:0;stroke-opacity:1;color-rendering:auto;image-rendering:auto;shape-rendering:auto;text-rendering:auto;enable-background:accumulate;stop-color:#000000"
         d="m 33.795648,13.209598 c -0.420453,0.321635 -0.878901,0.615621 -1.368608,0.877557 -1.360273,0.727589 -2.911333,1.222833 -4.640693,1.50435 l 3.715031,67.163482 c 0.420483,-0.09301 0.803687,-0.214526 1.126655,-0.35769 0.734576,-0.325629 1.099327,-0.747522 1.169996,-0.947571 0.0038,-0.0106 0.0076,-0.02113 0.01167,-0.03165 0.0018,-0.01117 0.0036,-0.02225 0.0057,-0.03334 0.0037,-0.02008 0.0052,-0.03776 0.0052,-0.05551 -6.4e-5,-0.01759 -0.0016,-0.03527 -0.0052,-0.05527 -0.01314,-0.07213 -0.01976,-0.145299 -0.01976,-0.218618 z" />
      <path
         style="color:#000000;font-style:normal;font-variant:normal;font-weight:normal;font-stretch:normal;font-size:medium;line-height:normal;font-family:sans-serif;font-variant-ligatures:normal;font-variant-position:normal;font-variant-caps:normal;font-variant-numeric:normal;font-variant-alternates:normal;font-variant-east-asian:normal;font-feature-settings:normal;font-variation-settings:normal;text-indent:0;text-align:start;text-decoration:none;text-decoration-line:none;text-decoration-style:solid;text-decoration-color:#000000;letter-spacing:normal;word-spacing:normal;text-transform:none;writing-mode:lr-tb;direction:ltr;text-orientation:mixed;dominant-baseline:auto;baseline-shift:baseline;text-anchor:start;white-space:normal;shape-padding:0;shape-margin:0;inline-size:0;clip-rule:nonzero;display:inline;overflow:visible;visibility:visible;isolation:auto;mix-blend-mode:normal;color-interpolation:sRGB;color-interpolation-filters:linearRGB;solid-color:#000000;solid-opacity:1;vector-effect:none;fill:#000000;fill-opacity:1;fill-rule:nonzero;stroke:#000000;stroke-width:1.21929;stroke-linecap:butt;stroke-linejoin:miter;stroke-miterlimit:4;stroke-dasharray:none;stroke-dashoffset:0;stroke-opacity:1;color-rendering:auto;image-rendering:auto;shape-rendering:auto;text-rendering:auto;enable-background:accumulate;stop-color:#000000"
         d="m 44.14195,22.036118 c -0.641432,-0.0503 -1.266658,0.05515 -1.846939,0.380729 l -0.05644,1.150073 c 0.709742,-0.398221 2.220834,-0.384768 3.334496,0.129824 1.113662,0.514593 2.394282,1.435222 3.722682,2.463487 2.656801,2.05653 5.457945,4.573078 8.225725,5.02598 l -0.151259,-1.377575 c -2.139883,-0.350158 -4.633984,-2.526799 -7.328313,-4.612379 -1.347165,-1.042789 -2.669052,-2.01161 -3.9567,-2.606597 -0.643824,-0.297493 -1.301814,-0.503248 -1.943248,-0.553542 z"
         id="path1479"
         sodipodi:nodetypes="sccssccsss" />
      <path
         style="color:#000000;font-style:normal;font-variant:normal;font-weight:normal;font-stretch:normal;font-size:medium;line-height:normal;font-family:sans-serif;font-variant-ligatures:normal;font-variant-position:normal;font-variant-caps:normal;font-variant-numeric:normal;font-variant-alternates:normal;font-variant-east-asian:normal;font-feature-settings:normal;font-variation-settings:normal;text-indent:0;text-align:start;text-decoration:none;text-decoration-line:none;text-decoration-style:solid;text-decoration-color:#000000;letter-spacing:normal;word-spacing:normal;text-transform:none;writing-mode:lr-tb;direction:ltr;text-orientation:mixed;dominant-baseline:auto;baseline-shift:baseline;text-anchor:start;white-space:normal;shape-padding:0;shape-margin:0;inline-size:0;clip-rule:nonzero;display:inline;overflow:visible;visibility:visible;isolation:auto;mix-blend-mode:normal;color-interpolation:sRGB;color-interpolation-filters:linearRGB;solid-color:#000000;solid-opacity:1;vector-effect:none;fill:#000000;fill-opacity:1;fill-rule:nonzero;stroke:#000000;stroke-width:1.21929;stroke-linecap:butt;stroke-linejoin:miter;stroke-miterlimit:4;stroke-dasharray:none;stroke-dashoffset:0;stroke-opacity:1;color-rendering:auto;image-rendering:auto;shape-rendering:auto;text-rendering:auto;enable-background:accumulate;stop-color:#000000"
         d="m 44.731496,32.031376 c -0.625854,0.0037 -1.274688,0.0978 -1.952248,0.312323 l 0.0624,1.293527 c 2.253959,-0.713628 4.368226,0.016 6.512593,1.077253 2.144366,1.061251 4.574256,2.310224 7.729786,1.893744 l 0.05752,-1.382977 c -2.764231,0.364832 -5.091191,-0.536852 -7.246362,-1.60345 -1.616377,-0.799948 -3.286131,-1.601635 -5.163691,-1.59042 z"
         id="path1481"
         sodipodi:nodetypes="sccsccss" />
      <path
         style="color:#000000;font-style:normal;font-variant:normal;font-weight:normal;font-stretch:normal;font-size:medium;line-height:normal;font-family:sans-serif;font-variant-ligatures:normal;font-variant-position:normal;font-variant-caps:normal;font-variant-numeric:normal;font-variant-alternates:normal;font-variant-east-asian:normal;font-feature-settings:normal;font-variation-settings:normal;text-indent:0;text-align:start;text-decoration:none;text-decoration-line:none;text-decoration-style:solid;text-decoration-color:#000000;letter-spacing:normal;word-spacing:normal;text-transform:none;writing-mode:lr-tb;direction:ltr;text-orientation:mixed;dominant-baseline:auto;baseline-shift:baseline;text-anchor:start;white-space:normal;shape-padding:0;shape-margin:0;inline-size:0;clip-rule:nonzero;display:inline;overflow:visible;visibility:visible;isolation:auto;mix-blend-mode:normal;color-interpolation:sRGB;color-interpolation-filters:linearRGB;solid-color:#000000;solid-opacity:1;vector-effect:none;fill:#000000;fill-opacity:1;fill-rule:nonzero;stroke:#000000;stroke-width:1.21929;stroke-linecap:butt;stroke-linejoin:miter;stroke-miterlimit:4;stroke-dasharray:none;stroke-dashoffset:0;stroke-opacity:1;color-rendering:auto;image-rendering:auto;shape-rendering:auto;text-rendering:auto;enable-background:accumulate;stop-color:#000000"
         d="m 56.978123,41.012087 c -1.797045,0.872149 -4.328156,1.076386 -6.569897,0.907439 -2.241743,-0.168946 -4.833897,-1.495239 -7.556416,0.138223 l 0.06125,1.350702 c 2.436896,-1.46209 5.218528,-0.437595 7.403361,-0.272934 2.184834,0.164656 4.396328,0.51449 6.583999,-0.547241 z"
         id="path1483"
         sodipodi:nodetypes="csccscc" />
      <path
         style="color:#000000;font-style:normal;font-variant:normal;font-weight:normal;font-stretch:normal;font-size:medium;line-height:normal;font-family:sans-serif;font-variant-ligatures:normal;font-variant-position:normal;font-variant-caps:normal;font-variant-numeric:normal;font-variant-alternates:normal;font-variant-east-asian:normal;font-feature-settings:normal;font-variation-settings:normal;text-indent:0;text-align:start;text-decoration:none;text-decoration-line:none;text-decoration-style:solid;text-decoration-color:#000000;letter-spacing:normal;word-spacing:normal;text-transform:none;writing-mode:lr-tb;direction:ltr;text-orientation:mixed;dominant-baseline:auto;baseline-shift:baseline;text-anchor:start;white-space:normal;shape-padding:0;shape-margin:0;inline-size:0;clip-rule:nonzero;display:inline;overflow:visible;visibility:visible;isolation:auto;mix-blend-mode:normal;color-interpolation:sRGB;color-interpolation-filters:linearRGB;solid-color:#000000;solid-opacity:1;vector-effect:none;fill:#000000;fill-opacity:1;fill-rule:nonzero;stroke:#000000;stroke-width:1.21929;stroke-linecap:butt;stroke-linejoin:miter;stroke-miterlimit:4;stroke-dasharray:none;stroke-dashoffset:0;stroke-opacity:1;color-rendering:auto;image-rendering:auto;shape-rendering:auto;text-rendering:auto;enable-background:accumulate;stop-color:#000000"
         d="m 57.648117,50.129005 c -2.462757,1.137479 -4.398167,0.913274 -6.578598,0.801959 -2.180431,-0.111315 -5.24508,-1.125635 -8.175963,0.64792 l -0.02224,1.565733 c 2.691531,-1.62872 5.35027,-0.756364 7.48291,-0.647492 2.132639,0.108877 4.407285,0.355013 7.151939,-0.91267 z"
         id="path1485"
         sodipodi:nodetypes="csccscc" />
      <path
         style="color:#000000;font-style:normal;font-variant:normal;font-weight:normal;font-stretch:normal;font-size:medium;line-height:normal;font-family:sans-serif;font-variant-ligatures:normal;font-variant-position:normal;font-variant-caps:normal;font-variant-numeric:normal;font-variant-alternates:normal;font-variant-east-asian:normal;font-feature-settings:normal;font-variation-settings:normal;text-indent:0;text-align:start;text-decoration:none;text-decoration-line:none;text-decoration-style:solid;text-decoration-color:#000000;letter-spacing:normal;word-spacing:normal;text-transform:none;writing-mode:lr-tb;direction:ltr;text-orientation:mixed;dominant-baseline:auto;baseline-shift:baseline;text-anchor:start;white-space:normal;shape-padding:0;shape-margin:0;inline-size:0;clip-rule:nonzero;display:inline;overflow:visible;visibility:visible;isolation:auto;mix-blend-mode:normal;color-interpolation:sRGB;color-interpolation-filters:linearRGB;solid-color:#000000;solid-opacity:1;vector-effect:none;fill:#000000;fill-opacity:1;fill-rule:nonzero;stroke:#000000;stroke-width:1.21929;stroke-linecap:butt;stroke-linejoin:miter;stroke-miterlimit:4;stroke-dasharray:none;stroke-dashoffset:0;stroke-opacity:1;color-rendering:auto;image-rendering:auto;shape-rendering:auto;text-rendering:auto;enable-background:accumulate;stop-color:#000000"
         d="m 57.517479,59.363649 c -2.462756,1.137478 -4.920722,1.262539 -7.101153,1.151225 -2.180431,-0.111314 -4.591887,-0.08143 -7.52277,1.69213 l 0.0213,1.565733 c 2.691532,-1.62872 5.306725,-2.148943 7.439365,-2.04007 2.132639,0.108877 4.407287,0.354115 7.151941,-0.913569 z"
         id="path1487"
         sodipodi:nodetypes="csccscc" />
    </g>
    <path
       transform="matrix(1.2589171,0,0,0.81271184,-12.361883,24.518874)"
       style="opacity:0.337705;fill:#000000;stroke:none;stroke-width:0.448705;stroke-miterlimit:4;stroke-dasharray:none;filter:url(#filter1607)"
       id="path1465"
       d="m 76.916982,99.957622 c 0,-0.01706 0.03411,-0.04548 0.07958,-0.06253 0.06821,-0.02842 0.07105,-0.03411 0.01991,-0.04263 -0.06537,-0.01421 -0.09379,-0.02558 -0.389376,-0.162002 -0.11937,-0.05684 -0.227371,-0.116528 -0.235898,-0.133582 -0.02842,-0.04548 -0.437692,-0.224529 -0.514427,-0.224529 -0.07674,0 -0.08242,-0.01991 -0.03411,-0.133582 0.01991,-0.04263 0.03695,-0.116527 0.03979,-0.164844 0.0027,-0.04548 0.02842,-0.162004 0.054,-0.255793 0.02557,-0.09379 0.04548,-0.207479 0.04263,-0.255795 -0.0027,-0.04548 -0.0027,-0.105159 -0.0027,-0.127897 0.01136,-0.125055 -0.0027,-0.193267 -0.06821,-0.33253 l -0.06821,-0.153478 0.054,-0.102317 c 0.04263,-0.07958 0.04832,-0.116528 0.02558,-0.159159 -0.01706,-0.02842 -0.054,-0.173374 -0.08242,-0.318321 -0.03127,-0.144952 -0.09948,-0.40643 -0.15632,-0.579802 -0.127898,-0.395057 -0.125055,-0.44053 0.02842,-0.4519 0.247268,-0.01421 0.292741,-0.03127 0.309795,-0.113685 0.0085,-0.04264 0,-0.190425 -0.01991,-0.332534 l -0.03411,-0.255794 -0.153478,-0.07389 c -0.08242,-0.0398 -0.162002,-0.09095 -0.176214,-0.113689 -0.03411,-0.054 -0.03127,-0.216002 0.0057,-0.284215 0.02557,-0.04832 0.01136,-0.07674 -0.07105,-0.170528 -0.08242,-0.09095 -0.102316,-0.133582 -0.102316,-0.233055 0,-0.06537 -0.01706,-0.147794 -0.03695,-0.179056 -0.150632,-0.261479 -0.173371,-0.332533 -0.318319,-1.091386 -0.03695,-0.196109 -0.16769,-0.602536 -0.224532,-0.696329 -0.01991,-0.03127 -0.05115,-0.144951 -0.07105,-0.255795 -0.03979,-0.207474 -0.113686,-0.520111 -0.258634,-1.065804 -0.218847,-0.829907 -0.352426,-1.600133 -0.324007,-1.861608 0.01706,-0.139267 0.01421,-0.153479 -0.04832,-0.18474 -0.127897,-0.06537 -0.224529,-0.181898 -0.281375,-0.335376 -0.119367,-0.315479 -0.162002,-1.037385 -0.08526,-1.44097 0.03979,-0.221687 0.159159,-0.480323 0.258637,-0.574116 0.09947,-0.09095 0.3979,-0.21316 0.486008,-0.198948 0.06252,0.0085 0.09663,-0.01136 0.164844,-0.09948 0.07674,-0.09379 0.08526,-0.122212 0.06821,-0.213159 -0.0085,-0.05968 -0.03411,-0.133582 -0.05116,-0.164844 -0.01991,-0.03127 -0.05116,-0.113685 -0.07105,-0.18474 -0.02272,-0.07105 -0.054,-0.179055 -0.0739,-0.241583 -0.01991,-0.06253 -0.04548,-0.159163 -0.05684,-0.213163 -0.01136,-0.054 -0.03127,-0.110844 -0.04263,-0.127898 -0.01421,-0.0142 -0.03695,-0.116527 -0.054,-0.227371 -0.108005,-0.73896 -0.119374,-0.861172 -0.10232,-0.977701 0.01136,-0.07105 0.02272,-0.329687 0.02272,-0.571269 0.0057,-0.474642 0.01991,-0.531486 0.181898,-0.670749 l 0.07105,-0.05968 -0.0057,-0.608221 c -0.0027,-0.588324 0.06537,-1.446654 0.142105,-1.78203 0.01706,-0.06537 0.02842,-0.363795 0.02842,-0.659379 0,-0.534324 0.02842,-0.815699 0.130739,-1.264757 0.02272,-0.108001 0.054,-0.301267 0.06821,-0.426322 0.04263,-0.360954 0.07389,-0.491693 0.241583,-0.994755 0.08526,-0.261475 0.156317,-0.48885 0.156317,-0.508743 0,-0.01991 0.02272,-0.08527 0.054,-0.147793 0.05684,-0.122213 0.230213,-0.824223 0.230213,-0.937908 0,-0.03979 0.04548,-0.170528 0.102316,-0.289902 0.187583,-0.400743 0.210321,-0.494532 0.210321,-0.858327 0,-0.238741 -0.01706,-0.395061 -0.05684,-0.55422 -0.09947,-0.392218 -0.07105,-0.687802 0.110843,-1.065809 0.18474,-0.389372 0.207479,-0.554216 0.204636,-1.392653 -0.0027,-0.588327 0.0057,-0.787277 0.03979,-0.909491 0.04832,-0.184739 0.05968,-1.108435 0.01136,-1.293175 -0.01421,-0.06253 -0.03979,-0.267164 -0.054,-0.454747 -0.01421,-0.187583 -0.04548,-0.449058 -0.07105,-0.58264 -0.02557,-0.133582 -0.04832,-0.395061 -0.05684,-0.58264 -0.01136,-0.343903 -0.02842,-0.44622 -0.108001,-0.599695 -0.02272,-0.04548 -0.05116,-0.144951 -0.06253,-0.218847 -0.01136,-0.0739 -0.04263,-0.162002 -0.07105,-0.198952 -0.102316,-0.130736 -0.147794,-0.252952 -0.133582,-0.35811 0.04832,-0.360954 0.08527,-0.534327 0.125055,-0.576957 0.054,-0.05968 0.01706,-0.127898 -0.105159,-0.207476 -0.08811,-0.05399 -0.08811,-0.06252 -0.06821,-0.198957 0.01706,-0.127891 0.02272,-0.27284 0.01136,-0.417796 -0.0027,-0.02844 -0.01421,-0.05115 -0.02842,-0.05115 -0.01421,0 -0.06821,-0.04547 -0.11937,-0.09663 -0.08526,-0.09095 -0.116529,-0.102314 -0.335373,-0.130742 -0.233055,-0.03128 -0.645167,-0.153469 -0.852645,-0.255795 -0.127898,-0.06252 -0.542851,-0.159158 -0.852645,-0.198951 -0.133583,-0.01709 -0.284215,-0.03696 -0.335373,-0.04263 -0.05401,-0.0059 -0.153478,-0.03411 -0.224532,-0.05968 l -0.13074,-0.05114 0.01991,-0.210314 c 0.0085,-0.11369 0.02272,-0.221691 0.03411,-0.235905 0.02272,-0.03696 3.81132,-0.03411 3.834059,0.0029 0.02557,0.04263 0.190425,0.03128 0.252952,-0.01419 0.04548,-0.03411 0.164844,-0.04263 0.602536,-0.04263 0.545693,0 0.545693,0 0.562747,0.06536 0.01991,0.08527 0.210317,0.372322 0.341057,0.517271 0.116528,0.130742 0.142109,0.227374 0.125055,0.483169 -0.0057,0.119371 0,0.184741 0.01991,0.184741 0.05968,0 0.210317,0.520115 0.210317,0.738955 0.0029,0.133585 0.01709,0.173372 0.09095,0.267165 0.0881,0.105158 0.09095,0.108002 0.05682,0.261478 -0.01992,0.08527 -0.04547,0.153475 -0.05968,0.153475 -0.02271,0 -0.0483,0.09379 -0.116527,0.446218 -0.01709,0.09948 -0.05116,0.193268 -0.07105,0.210321 -0.05968,0.04832 -0.04832,0.122212 0.03127,0.196109 0.144949,0.133579 0.164845,0.252949 0.133585,0.784435 -0.01992,0.315476 -0.05399,0.599694 -0.102319,0.82138 -0.0398,0.187582 -0.09379,0.449062 -0.116528,0.582644 -0.02558,0.133578 -0.05115,0.261476 -0.05968,0.284214 -0.0085,0.02272 -0.02842,0.187582 -0.04264,0.363795 -0.01421,0.173372 -0.04548,0.400743 -0.07105,0.503062 -0.03979,0.156317 -0.04263,0.224529 -0.01706,0.420638 0.03411,0.255791 0.054,0.318319 0.230213,0.730434 0.125055,0.292741 0.147795,0.466112 0.07106,0.58264 -0.02271,0.03695 -0.06252,0.179056 -0.08242,0.318322 -0.119371,0.76738 -0.156318,0.954962 -0.227371,1.188018 -0.04548,0.142109 -0.105159,0.298426 -0.133582,0.349583 -0.06821,0.122213 -0.06537,0.264322 0.0057,0.355269 0.03127,0.03979 0.05684,0.09948 0.05684,0.133581 0,0.07958 -0.05684,0.287057 -0.09095,0.332534 -0.01706,0.01991 0.0057,0.116528 0.05401,0.255791 0.07389,0.210321 0.07673,0.25011 0.07673,0.704856 0,0.349583 -0.01421,0.55422 -0.05116,0.73896 -0.02557,0.142106 -0.06821,0.358111 -0.09095,0.483165 -0.02272,0.125052 -0.0739,0.324003 -0.113686,0.440531 -0.08811,0.261479 -0.102319,0.653694 -0.03127,0.946439 0.02557,0.105159 0.05684,0.372319 0.06537,0.596851 0.01136,0.221686 0.03127,0.42348 0.04263,0.451901 0.03127,0.05684 0.110844,0.582642 0.110844,0.724747 0,0.06537 0.03411,0.16769 0.08242,0.255795 0.054,0.09948 0.08811,0.210321 0.102317,0.341061 0.01421,0.130735 0.06252,0.298424 0.15632,0.520111 0.238743,0.576956 0.264315,0.687803 0.284212,1.278969 0.01419,0.397899 0.03128,0.557062 0.07106,0.653694 0.04263,0.108 0.04547,0.190424 0.03411,0.55422 -0.0085,0.235899 -0.03696,0.503058 -0.05969,0.596851 -0.05682,0.22453 -0.05399,0.372322 0.0085,0.866857 0.07106,0.522955 0.162005,0.909489 0.301273,1.264757 0.386531,0.986224 0.585487,1.472233 0.716227,1.742238 0.108001,0.224529 0.167684,0.392215 0.198945,0.55422 0.02271,0.127897 0.06537,0.30411 0.0938,0.389372 0.113684,0.346745 0.127898,0.440535 0.127898,0.89528 0,0.47464 -0.01992,0.596852 -0.198954,1.307389 -0.0398,0.153478 -0.07105,0.318322 -0.07105,0.366638 0,0.04832 -0.0256,0.167686 -0.05682,0.267163 -0.03128,0.09663 -0.07674,0.301268 -0.09947,0.454743 -0.06537,0.403584 -0.09095,0.480323 -0.210318,0.611063 -0.05969,0.06537 -0.139268,0.18474 -0.179059,0.261479 -0.147793,0.292741 -0.210319,0.392214 -0.324007,0.525797 -0.196106,0.230213 -0.318324,0.477481 -0.395058,0.807171 -0.05969,0.25011 -0.06537,0.324007 -0.04263,0.429165 0.06252,0.275688 0.130736,0.403585 0.343902,0.625275 0.116527,0.11937 0.233059,0.258633 0.258637,0.312634 0.02844,0.05116 0.110846,0.162004 0.184734,0.244425 0.196112,0.216005 0.224535,0.272848 0.289905,0.545692 0.07958,0.324008 0.07674,0.551379 -0.01419,0.875385 -0.03979,0.14779 -0.0739,0.309794 -0.07105,0.360953 0.0029,0.04831 -0.0085,0.09095 -0.01992,0.09095 -0.01419,0 -0.05399,0.07105 -0.0881,0.156319 -0.05682,0.136424 -0.119375,0.227371 -0.289903,0.43485 -0.01992,0.02272 -0.02271,0.09095 -0.01135,0.181898 0.02271,0.156317 -0.02271,0.176213 -0.05682,0.02272 -0.01135,-0.04832 -0.02844,-0.08527 -0.04263,-0.08527 -0.0256,0 -0.05682,0.07105 -0.05682,0.133582 0,0.05116 -0.218852,0.321164 -0.258638,0.321164 -0.01709,0 -0.0938,0.05116 -0.176219,0.110843 -0.244423,0.18474 -0.733274,0.395058 -0.957802,0.40927 -0.05116,0.0057 -0.07105,-0.0085 -0.06821,-0.04548 0.0057,-0.04264 -0.01136,-0.04832 -0.142109,-0.03127 -0.07958,0.01136 -0.170528,0.02842 -0.204636,0.03979 -0.03127,0.01421 -0.0881,0.01706 -0.127897,0.0085 -0.03695,-0.0057 -0.136421,0.01421 -0.218845,0.04548 -0.162001,0.06537 -0.261479,0.07674 -0.261479,0.03127 z m 0.07389,-5.385875 c 0.02272,-0.07674 0.0398,-0.193268 0.0398,-0.255794 0,-0.10516 -0.01706,-0.13074 -0.190425,-0.298426 -0.105162,-0.102317 -0.170529,-0.15916 -0.147793,-0.13074 0.04548,0.06253 0.164843,0.366637 0.187582,0.474638 0.01136,0.05969 -0.0085,0.09948 -0.102316,0.190425 -0.06537,0.06253 -0.116528,0.130739 -0.116528,0.147793 0,0.01706 0.04263,0.08242 0.09095,0.147791 l 0.09379,0.113688 0.054,-0.122212 c 0.02842,-0.06821 0.07105,-0.187583 0.09095,-0.267163 z m -0.358111,-0.824223 c -0.01991,-0.02558 -0.04263,-0.03695 -0.05116,-0.02843 -0.0085,0.0057 0.0027,0.03127 0.02272,0.05684 0.01991,0.02557 0.04263,0.03695 0.05116,0.02842 0.0085,-0.0057 -0.0027,-0.03127 -0.02272,-0.05684 z m -0.06537,-0.687802 c 0.01136,-0.11937 0.0057,-0.179056 -0.01421,-0.179056 -0.03127,0 -0.147791,-0.281371 -0.147791,-0.360952 0,-0.02272 -0.054,-0.164844 -0.116527,-0.309795 -0.105159,-0.238741 -0.136424,-0.281372 -0.275691,-0.389373 -0.153474,-0.116532 -0.341057,-0.34106 -0.343899,-0.409272 -0.0027,-0.01991 -0.01136,-0.03695 -0.02557,-0.03695 -0.01136,0 -0.01136,0.181896 0.0027,0.400741 0.02272,0.400745 0.02272,0.403588 0.116528,0.514431 0.05684,0.06537 0.113685,0.179055 0.142109,0.281372 0.03695,0.130739 0.0682,0.181898 0.130739,0.221686 0.125051,0.0739 0.420638,0.409273 0.443373,0.50022 l 0.01991,0.08242 0.02558,-0.07106 c 0.01421,-0.03695 0.03411,-0.147793 0.04264,-0.244425 z" />
    <path
       d="m 84.31969,31.718293 c 0,0.02098 0.04195,0.05593 0.09787,0.0769 0.08389,0.03495 0.08738,0.04195 0.02449,0.05243 -0.08039,0.01748 -0.115348,0.03146 -0.478874,0.199238 -0.146807,0.0699 -0.279631,0.143312 -0.290118,0.164286 -0.03495,0.05593 -0.538295,0.276136 -0.632668,0.276136 -0.09438,0 -0.101364,0.02449 -0.04195,0.164286 0.02449,0.05243 0.04544,0.143311 0.04894,0.202733 0.0033,0.05593 0.03495,0.199241 0.06641,0.314587 0.03145,0.115347 0.05593,0.255167 0.05243,0.314589 -0.0033,0.05593 -0.0033,0.129329 -0.0033,0.157294 0.01397,0.153798 -0.0033,0.237689 -0.08389,0.408961 l -0.08389,0.188755 0.06641,0.125834 c 0.05243,0.09787 0.05943,0.143312 0.03146,0.195742 -0.02098,0.03495 -0.06641,0.213223 -0.101364,0.391486 -0.03846,0.178269 -0.122345,0.499848 -0.19225,0.713069 -0.157295,0.48586 -0.153799,0.541785 0.03495,0.555768 0.304103,0.01748 0.360027,0.03846 0.381001,0.139816 0.01045,0.05244 0,0.234193 -0.02449,0.408966 l -0.04195,0.314588 -0.188755,0.09087 c -0.101364,0.04895 -0.199238,0.111855 -0.216716,0.139821 -0.04195,0.06641 -0.03846,0.265649 0.007,0.349541 0.03145,0.05943 0.01397,0.09438 -0.08738,0.209724 -0.101364,0.111854 -0.125833,0.164285 -0.125833,0.286622 0,0.08039 -0.02098,0.181764 -0.04544,0.220212 -0.185255,0.321579 -0.21322,0.408965 -0.391484,1.342239 -0.04544,0.241184 -0.206233,0.741028 -0.27614,0.856379 -0.02449,0.03846 -0.06291,0.178268 -0.08738,0.314589 -0.04894,0.255162 -0.139817,0.639658 -0.318081,1.310777 -0.269148,1.02066 -0.43343,1.967921 -0.398479,2.289496 0.02098,0.171277 0.01748,0.188756 -0.05943,0.227202 -0.157294,0.0804 -0.276137,0.223707 -0.346049,0.412462 -0.146803,0.387991 -0.199238,1.275826 -0.104857,1.772174 0.04894,0.272642 0.195741,0.590725 0.318084,0.706076 0.122333,0.111855 0.489357,0.262154 0.597716,0.244676 0.07689,-0.01045 0.118841,0.01397 0.202734,0.122345 0.09438,0.115348 0.104856,0.150302 0.08389,0.262153 -0.01045,0.0734 -0.04195,0.164286 -0.06292,0.202733 -0.02449,0.03846 -0.06292,0.139816 -0.08738,0.227203 -0.02794,0.08738 -0.06641,0.22021 -0.09089,0.29711 -0.02449,0.0769 -0.05593,0.195746 -0.06991,0.262158 -0.01397,0.06641 -0.03846,0.136322 -0.05243,0.157295 -0.01748,0.01746 -0.04544,0.143311 -0.06641,0.279632 -0.13283,0.908809 -0.146812,1.059111 -0.125838,1.202424 0.01397,0.08738 0.02794,0.405465 0.02794,0.702574 0.007,0.583738 0.02449,0.653648 0.223707,0.82492 l 0.08738,0.0734 -0.007,0.74802 c -0.0033,0.723549 0.08039,1.779165 0.174767,2.191627 0.02098,0.08039 0.03495,0.447412 0.03495,0.810936 0,0.657137 0.03495,1.003186 0.160789,1.555459 0.02794,0.132825 0.06641,0.370513 0.08389,0.524312 0.05243,0.443918 0.09087,0.604707 0.29711,1.223397 0.104857,0.321575 0.192246,0.601212 0.192246,0.625677 0,0.02449 0.02794,0.104869 0.06641,0.181763 0.0699,0.150304 0.283127,1.013669 0.283127,1.153485 0,0.04894 0.05593,0.209723 0.125834,0.356535 0.230698,0.492853 0.258662,0.6082 0.258662,1.055612 0,0.293616 -0.02098,0.485865 -0.0699,0.681607 -0.122333,0.482369 -0.08738,0.845892 0.13632,1.310783 0.227202,0.478869 0.255168,0.681602 0.251671,1.712752 -0.0033,0.723552 0.007,0.96823 0.04894,1.118535 0.05943,0.227201 0.0734,1.363207 0.01397,1.590409 -0.01748,0.0769 -0.04894,0.328571 -0.06641,0.559269 -0.01748,0.230699 -0.05593,0.552273 -0.08738,0.716559 -0.03145,0.164285 -0.05943,0.485865 -0.0699,0.716559 -0.01397,0.422947 -0.03495,0.548781 -0.132825,0.737532 -0.02794,0.05593 -0.06292,0.178268 -0.0769,0.269149 -0.01397,0.09089 -0.05243,0.199238 -0.08738,0.244681 -0.125833,0.160785 -0.181764,0.311092 -0.164286,0.440421 0.05943,0.443918 0.104869,0.65714 0.153799,0.709568 0.06641,0.0734 0.02098,0.157295 -0.12933,0.255164 -0.108362,0.0664 -0.108362,0.07689 -0.08389,0.244687 0.02098,0.157287 0.02794,0.335552 0.01397,0.513826 -0.0033,0.03498 -0.01748,0.06291 -0.03495,0.06291 -0.01748,0 -0.08389,0.05592 -0.146807,0.11884 -0.104857,0.111854 -0.143313,0.12583 -0.412458,0.160793 -0.286622,0.03847 -0.793457,0.188743 -1.048624,0.314589 -0.157295,0.07689 -0.667624,0.195739 -1.048624,0.244678 -0.164287,0.02102 -0.349541,0.04546 -0.412458,0.05243 -0.06642,0.0073 -0.188755,0.04195 -0.27614,0.0734 l -0.160791,0.06289 0.02449,0.258655 c 0.01045,0.139821 0.02794,0.272646 0.04195,0.290127 0.02794,0.04546 4.687346,0.04195 4.715311,-0.0036 0.03145,-0.05243 0.234194,-0.03847 0.311093,0.01745 0.05593,0.04195 0.202733,0.05243 0.741028,0.05243 0.671119,0 0.671119,0 0.692093,-0.08038 0.02449,-0.104869 0.258658,-0.457899 0.419448,-0.636164 0.143312,-0.160793 0.174773,-0.279635 0.153799,-0.594224 -0.007,-0.146808 0,-0.227203 0.02449,-0.227203 0.0734,0 0.258658,-0.639664 0.258658,-0.908804 0.0036,-0.164289 0.02102,-0.213221 0.111855,-0.328572 0.10835,-0.129328 0.111855,-0.132825 0.06988,-0.321578 -0.0245,-0.104869 -0.05592,-0.188751 -0.0734,-0.188751 -0.02793,0 -0.0594,-0.115347 -0.143311,-0.54878 -0.02102,-0.122345 -0.06292,-0.23769 -0.08738,-0.258663 -0.0734,-0.05943 -0.05943,-0.150302 0.03846,-0.241184 0.178265,-0.164282 0.202734,-0.311089 0.164289,-0.964735 -0.0245,-0.387988 -0.0664,-0.737533 -0.125837,-1.010173 -0.04895,-0.230697 -0.115347,-0.552277 -0.143311,-0.716563 -0.03146,-0.16428 -0.06291,-0.321575 -0.0734,-0.34954 -0.01045,-0.02794 -0.03495,-0.230697 -0.05244,-0.447412 -0.01748,-0.213222 -0.05593,-0.492853 -0.08738,-0.61869 -0.04894,-0.192247 -0.05243,-0.276137 -0.02098,-0.517321 0.04195,-0.314584 0.06641,-0.391484 0.283128,-0.898322 0.153798,-0.360027 0.181765,-0.573247 0.08739,-0.716559 -0.02793,-0.04544 -0.07689,-0.220212 -0.101364,-0.391488 -0.146809,-0.943761 -0.192248,-1.174458 -0.279632,-1.461082 -0.05593,-0.174772 -0.12933,-0.367018 -0.164286,-0.429934 -0.08389,-0.150303 -0.08039,-0.325076 0.007,-0.436927 0.03846,-0.04894 0.0699,-0.122345 0.0699,-0.164284 0,-0.09787 -0.0699,-0.353037 -0.111855,-0.408967 -0.02098,-0.02449 0.007,-0.143311 0.06642,-0.314584 0.09087,-0.258663 0.09437,-0.307597 0.09437,-0.866866 0,-0.429934 -0.01748,-0.681606 -0.06292,-0.908808 -0.03145,-0.174769 -0.08389,-0.440423 -0.111854,-0.59422 -0.02794,-0.153795 -0.09089,-0.398475 -0.139817,-0.541786 -0.108362,-0.32158 -0.125837,-0.803945 -0.03846,-1.163977 0.03145,-0.12933 0.0699,-0.457896 0.0804,-0.734036 0.01397,-0.27264 0.03846,-0.520816 0.05243,-0.55577 0.03846,-0.0699 0.136322,-0.716561 0.136322,-0.891329 0,-0.08039 0.04195,-0.206233 0.101364,-0.314589 0.06641,-0.122345 0.108362,-0.258663 0.125834,-0.419453 0.01748,-0.160784 0.07689,-0.367016 0.19225,-0.639658 0.293618,-0.709568 0.325067,-0.845893 0.349538,-1.572938 0.01745,-0.489355 0.03847,-0.685102 0.08739,-0.803944 0.05243,-0.132824 0.05592,-0.234193 0.04195,-0.681607 -0.01045,-0.29012 -0.04546,-0.618685 -0.07341,-0.734036 -0.06988,-0.276138 -0.0664,-0.4579 0.01045,-1.066103 0.08739,-0.643155 0.199242,-1.118533 0.37052,-1.555459 0.475375,-1.212906 0.72006,-1.810623 0.880851,-2.142689 0.132825,-0.276136 0.206226,-0.482365 0.244672,-0.681606 0.02793,-0.157294 0.08039,-0.374009 0.11536,-0.478869 0.139814,-0.426443 0.157295,-0.541791 0.157295,-1.101058 0,-0.583736 -0.0245,-0.734038 -0.244683,-1.607891 -0.04895,-0.188754 -0.08738,-0.391487 -0.08738,-0.450909 0,-0.05943 -0.03148,-0.206228 -0.06988,-0.32857 -0.03847,-0.11884 -0.09438,-0.370514 -0.122333,-0.559265 -0.08039,-0.496347 -0.111855,-0.590724 -0.258659,-0.751514 -0.07341,-0.0804 -0.171279,-0.227203 -0.220216,-0.32158 -0.181763,-0.360027 -0.25866,-0.482364 -0.398479,-0.646651 -0.241181,-0.283127 -0.391491,-0.587229 -0.485862,-0.992697 -0.07341,-0.307598 -0.08039,-0.39848 -0.05243,-0.527808 0.07689,-0.339055 0.160785,-0.496349 0.422947,-0.768994 0.143311,-0.146807 0.286627,-0.318079 0.318084,-0.384492 0.03498,-0.06292 0.136324,-0.199241 0.227195,-0.300606 0.241188,-0.265653 0.276144,-0.335562 0.356539,-0.671118 0.09787,-0.398481 0.09438,-0.678113 -0.01745,-1.076591 -0.04894,-0.181759 -0.09089,-0.381 -0.08738,-0.443918 0.0036,-0.05941 -0.01045,-0.111854 -0.0245,-0.111854 -0.01745,0 -0.0664,-0.08738 -0.10835,-0.192249 -0.06988,-0.167781 -0.146813,-0.279632 -0.356537,-0.534799 -0.0245,-0.02794 -0.02793,-0.111855 -0.01396,-0.223707 0.02793,-0.192247 -0.02793,-0.216716 -0.06988,-0.02794 -0.01396,0.05943 -0.03498,0.10487 -0.05243,0.10487 -0.03148,0 -0.06988,-0.08738 -0.06988,-0.164286 0,-0.06292 -0.269155,-0.394983 -0.318086,-0.394983 -0.02102,0 -0.115359,-0.06292 -0.216722,-0.13632 -0.300603,-0.227202 -0.901816,-0.485862 -1.177951,-0.50334 -0.06292,-0.007 -0.08738,0.01045 -0.08389,0.05593 0.007,0.05244 -0.01397,0.05943 -0.174773,0.03846 -0.09787,-0.01397 -0.209723,-0.03495 -0.251671,-0.04894 -0.03846,-0.01748 -0.10835,-0.02098 -0.157294,-0.01045 -0.04544,0.007 -0.167777,-0.01748 -0.269146,-0.05593 -0.199237,-0.0804 -0.32158,-0.09438 -0.32158,-0.03846 z m 0.09087,6.62381 c 0.02794,0.09438 0.04895,0.23769 0.04895,0.314588 0,0.129331 -0.02098,0.16079 -0.234194,0.367019 -0.129333,0.125834 -0.209725,0.195742 -0.181763,0.16079 0.05593,-0.0769 0.202732,-0.450908 0.230697,-0.583733 0.01397,-0.07341 -0.01045,-0.122345 -0.125833,-0.234194 -0.08039,-0.0769 -0.143312,-0.160789 -0.143312,-0.181763 0,-0.02098 0.05243,-0.101364 0.111855,-0.18176 l 0.115348,-0.139819 0.06641,0.150302 c 0.03495,0.08389 0.08738,0.230699 0.111855,0.32857 z m -0.440422,1.013669 c -0.02449,0.03146 -0.05243,0.04544 -0.06292,0.03496 -0.01045,-0.007 0.0033,-0.03846 0.02794,-0.06991 0.02449,-0.03145 0.05243,-0.04544 0.06292,-0.03495 0.01045,0.007 -0.0033,0.03846 -0.02794,0.0699 z m -0.0804,0.845892 c 0.01397,0.146807 0.007,0.220212 -0.01748,0.220212 -0.03846,0 -0.18176,0.346044 -0.18176,0.443916 0,0.02794 -0.06641,0.202734 -0.143311,0.381001 -0.129329,0.293616 -0.167781,0.346045 -0.339058,0.47887 -0.18875,0.143317 -0.419448,0.419452 -0.422944,0.503343 -0.0033,0.02449 -0.01397,0.04544 -0.03145,0.04544 -0.01397,0 -0.01397,-0.223704 0.0033,-0.49285 0.02794,-0.492856 0.02794,-0.496352 0.143312,-0.632672 0.0699,-0.0804 0.139815,-0.220211 0.174772,-0.346045 0.04544,-0.160789 0.08388,-0.223707 0.160789,-0.27264 0.153794,-0.09089 0.517321,-0.503344 0.545282,-0.615195 l 0.02449,-0.101364 0.03146,0.08739 c 0.01748,0.04544 0.04195,0.181763 0.05244,0.300605 z"
       id="path837"
       style="opacity:1;fill:#2c5aa0;stroke:none;stroke-width:0.551839;stroke-miterlimit:4;stroke-dasharray:none" />
    <g
       style="opacity:1"
       transform="matrix(0.9051773,0,0,0.9051773,7.1298225,-0.49870222)"
       id="g853">
      <path
         id="path949"
         d="m 23.887662,1.3920861 c -3.282891,0 -6.267628,0.6945704 -8.539334,1.9096688 -2.271706,1.2150974 -3.973178,3.0755612 -3.973178,5.39227 0,0.8721064 0.243466,1.6786261 0.665848,2.4111971 l 10.280874,64.723943 0.414607,2.610763 c 0.340477,-0.0989 0.695722,-0.187265 1.061402,-0.266482 0.08226,-0.01783 0.165914,-0.03442 0.249337,-0.0512 0.100005,-0.02009 0.200818,-0.03959 0.302442,-0.05811 0.06891,-0.01263 0.137319,-0.02576 0.206945,-0.0376 0.164674,-0.02802 0.331369,-0.05383 0.499862,-0.07764 0.514848,-0.07303 1.046743,-0.125729 1.592224,-0.155983 l 0.640843,4.77096 0.353168,2.618619 c 0.40308,0.08047 0.821824,0.137541 1.253584,0.169555 0.27658,0.02048 0.558177,0.03141 0.844218,0.03141 1.428349,-1.6e-5 2.761575,-0.263015 3.875539,-0.756816 0.939784,-0.416599 1.751377,-1.019639 2.230685,-1.876569 0.247101,-0.230584 0.387416,-0.553393 0.38746,-0.891369 v -0.253624 c 0.0093,-0.09156 0.02493,-0.182408 0.02501,-0.274576 v -0.0016 c -5.7e-5,-0.09177 -0.01577,-0.182221 -0.02501,-0.273378 v -0.0014 -71.3936167 l 0.1667,-0.9666284 -0.215519,-1.2790664 -0.02429,-0.03072 C 35.655049,5.6788747 34.247423,4.2754343 32.426996,3.3017199 30.155291,2.0866215 27.170553,1.3920511 23.887663,1.3920511 Z"
         style="color:#000000;font-style:normal;font-variant:normal;font-weight:normal;font-stretch:normal;font-size:medium;line-height:normal;font-family:sans-serif;font-variant-ligatures:normal;font-variant-position:normal;font-variant-caps:normal;font-variant-numeric:normal;font-variant-alternates:normal;font-variant-east-asian:normal;font-feature-settings:normal;font-variation-settings:normal;text-indent:0;text-align:start;text-decoration:none;text-decoration-line:none;text-decoration-style:solid;text-decoration-color:#000000;letter-spacing:normal;word-spacing:normal;text-transform:none;writing-mode:lr-tb;direction:ltr;text-orientation:mixed;dominant-baseline:auto;baseline-shift:baseline;text-anchor:start;white-space:normal;shape-padding:0;shape-margin:0;inline-size:0;clip-rule:nonzero;display:inline;overflow:visible;visibility:visible;isolation:auto;mix-blend-mode:normal;color-interpolation:sRGB;color-interpolation-filters:linearRGB;solid-color:#000000;solid-opacity:1;vector-effect:none;fill:#164450;fill-opacity:1;fill-rule:nonzero;stroke:none;stroke-width:2.43859;stroke-linecap:round;stroke-linejoin:round;stroke-miterlimit:4;stroke-dasharray:none;stroke-dashoffset:0;stroke-opacity:1;color-rendering:auto;image-rendering:auto;shape-rendering:auto;text-rendering:auto;enable-background:accumulate;stop-color:#000000" />
      <path
         id="path1029"
         d="m 40.879605,9.6213833 c -1.077711,0.01654 -2.218394,0.299113 -3.442945,0.9162587 v 68.176441 c 4.242815,-5.262066 8.316753,-6.17522 12.426415,-6.497468 3.989204,-0.312791 8.008745,-0.08313 12.296934,-2.750051 V 25.630759 c -2.069527,-0.523389 -3.90589,-1.678623 -5.601435,-3.140045 -2.488637,-2.14501 -4.678678,-4.948488 -6.871916,-7.390077 -2.193243,-2.44159 -4.388909,-4.518297 -6.878339,-5.2224787 -0.622355,-0.176045 -1.263578,-0.266985 -1.928714,-0.256775 z"
         style="fill:#afdde9;stroke:#164450;stroke-width:2.51419;stroke-linecap:square;stroke-miterlimit:4;stroke-dasharray:none" />
      <path
         id="path1064"
         d="m 33.795603,13.209692 v 67.84576 c 4e-6,0.07332 0.0066,0.146486 0.01976,0.218614 0.0036,0.02 0.0051,0.03768 0.0052,0.05527 -5.3e-5,0.01767 -0.0016,0.03535 -0.0052,0.05551 -0.0021,0.01109 -0.0039,0.02217 -0.0057,0.03334 -0.004,0.01052 -0.008,0.02105 -0.01167,0.03165 -0.07067,0.200049 -0.43542,0.621943 -1.169996,0.947571 -0.734577,0.325637 -1.768479,0.547481 -2.887484,0.547489 -0.410741,0 -0.805869,-0.03254 -1.180477,-0.08621 L 20.281887,14.25405 c 1.065823,0.784542 2.239756,1.619701 3.790525,1.619701 3.282892,0 6.082878,-0.571403 8.354583,-1.786502 0.489707,-0.261936 0.948155,-0.555922 1.368608,-0.877557 z"
         style="color:#000000;font-style:normal;font-variant:normal;font-weight:normal;font-stretch:normal;font-size:medium;line-height:normal;font-family:sans-serif;font-variant-ligatures:normal;font-variant-position:normal;font-variant-caps:normal;font-variant-numeric:normal;font-variant-alternates:normal;font-variant-east-asian:normal;font-feature-settings:normal;font-variation-settings:normal;text-indent:0;text-align:start;text-decoration:none;text-decoration-line:none;text-decoration-style:solid;text-decoration-color:#000000;letter-spacing:normal;word-spacing:normal;text-transform:none;writing-mode:lr-tb;direction:ltr;text-orientation:mixed;dominant-baseline:auto;baseline-shift:baseline;text-anchor:start;white-space:normal;shape-padding:0;shape-margin:0;inline-size:0;clip-rule:nonzero;display:inline;overflow:visible;visibility:visible;isolation:auto;mix-blend-mode:normal;color-interpolation:sRGB;color-interpolation-filters:linearRGB;solid-color:#000000;solid-opacity:1;vector-effect:none;fill:#80e5ff;fill-opacity:1;fill-rule:nonzero;stroke:none;stroke-width:2.43859;stroke-linecap:round;stroke-linejoin:round;stroke-miterlimit:4;stroke-dasharray:none;stroke-dashoffset:0;stroke-opacity:1;color-rendering:auto;image-rendering:auto;shape-rendering:auto;text-rendering:auto;enable-background:accumulate;stop-color:#000000" />
      <path
         id="path1062"
         d="m 23.580695,8.1189092 v 3.7983798 c -0.969495,-0.132497 -1.858076,-0.35063 -2.466924,-0.67966 -0.862847,-0.466293 -1.122587,-0.93822 -1.122606,-1.21953 -2.2e-5,-0.2799267 0.256793,-0.7479974 1.112605,-1.2133381 0.609446,-0.331381 1.50159,-0.5525437 2.476925,-0.6858517 z"
         style="color:#000000;font-style:normal;font-variant:normal;font-weight:normal;font-stretch:normal;font-size:medium;line-height:normal;font-family:sans-serif;font-variant-ligatures:normal;font-variant-position:normal;font-variant-caps:normal;font-variant-numeric:normal;font-variant-alternates:normal;font-variant-east-asian:normal;font-feature-settings:normal;font-variation-settings:normal;text-indent:0;text-align:start;text-decoration:none;text-decoration-line:none;text-decoration-style:solid;text-decoration-color:#000000;letter-spacing:normal;word-spacing:normal;text-transform:none;writing-mode:lr-tb;direction:ltr;text-orientation:mixed;dominant-baseline:auto;baseline-shift:baseline;text-anchor:start;white-space:normal;shape-padding:0;shape-margin:0;inline-size:0;clip-rule:nonzero;display:inline;overflow:visible;visibility:visible;isolation:auto;mix-blend-mode:normal;color-interpolation:sRGB;color-interpolation-filters:linearRGB;solid-color:#000000;solid-opacity:1;vector-effect:none;fill:#2c89a0;fill-opacity:1;fill-rule:nonzero;stroke:none;stroke-width:2.43859;stroke-linecap:round;stroke-linejoin:round;stroke-miterlimit:4;stroke-dasharray:none;stroke-dashoffset:0;stroke-opacity:1;color-rendering:auto;image-rendering:auto;shape-rendering:auto;text-rendering:auto;enable-background:accumulate;stop-color:#000000" />
      <path
         id="path1060"
         d="m 23.887662,4.0128496 c 2.904059,0 5.520105,0.6464977 7.302894,1.6000811 1.782788,0.9535854 2.588854,2.0885058 2.588854,3.0810942 0,0.9925874 -0.806066,2.1286991 -2.588854,3.0822841 -1.333367,0.713196 -3.133101,1.254315 -5.170562,1.481964 V 5.5429177 l -1.217863,-0.0017 c -0.01362,-2.2e-5 -0.02686,-2.2e-5 -0.04049,0 h -0.0045 -0.0045 c -1.836796,0.0161 -3.505804,0.4088497 -4.814539,1.1204634 -1.308733,0.7116124 -2.385123,1.8576708 -2.385001,3.3563859 1.8e-5,0.257537 0.03384,0.503911 0.09311,0.740148 l 8.652883,64.430071 c -0.539309,0.03378 -1.068143,0.08686 -1.584842,0.158126 l -2.45e-4,-0.0023 -10.327549,-65.018347 c -0.02425,-0.152774 -0.07735,-0.29954 -0.15646,-0.4324677 C 13.976931,9.4680986 13.872203,9.0784346 13.872069,8.6947249 v -2.44e-4 -2.43e-4 c 5.9e-5,-0.171961 0.02216,-0.3439807 0.06835,-0.5212947 8.3e-5,-3.66e-4 -8.3e-5,-6e-4 0,-9.64e-4 l 2.44e-4,-5.07e-4 c 0.06997,-0.268079 0.20349,-0.5470407 0.394603,-0.8277844 l 0.104306,0.04477 C 14.850066,6.7776631 15.552724,6.1648824 16.584765,5.6128607 18.367554,4.6592773 20.983602,4.0127786 23.88766,4.0127786 Z"
         style="color:#000000;font-style:normal;font-variant:normal;font-weight:normal;font-stretch:normal;font-size:medium;line-height:normal;font-family:sans-serif;font-variant-ligatures:normal;font-variant-position:normal;font-variant-caps:normal;font-variant-numeric:normal;font-variant-alternates:normal;font-variant-east-asian:normal;font-feature-settings:normal;font-variation-settings:normal;text-indent:0;text-align:start;text-decoration:none;text-decoration-line:none;text-decoration-style:solid;text-decoration-color:#000000;letter-spacing:normal;word-spacing:normal;text-transform:none;writing-mode:lr-tb;direction:ltr;text-orientation:mixed;dominant-baseline:auto;baseline-shift:baseline;text-anchor:start;white-space:normal;shape-padding:0;shape-margin:0;inline-size:0;clip-rule:nonzero;display:inline;overflow:visible;visibility:visible;isolation:auto;mix-blend-mode:normal;color-interpolation:sRGB;color-interpolation-filters:linearRGB;solid-color:#000000;solid-opacity:1;vector-effect:none;fill:#5fbcd3;fill-opacity:1;fill-rule:nonzero;stroke:none;stroke-width:2.43859;stroke-linecap:round;stroke-linejoin:round;stroke-miterlimit:4;stroke-dasharray:none;stroke-dashoffset:0;stroke-opacity:1;color-rendering:auto;image-rendering:auto;shape-rendering:auto;text-rendering:auto;enable-background:accumulate;stop-color:#000000" />
      <path
         d="m 33.795648,13.209598 c -0.420453,0.321635 -0.878901,0.615621 -1.368608,0.877557 -1.360273,0.727589 -2.911333,1.222833 -4.640693,1.50435 l 3.715031,67.163482 c 0.420483,-0.09301 0.803687,-0.214526 1.126655,-0.35769 0.734576,-0.325629 1.099327,-0.747522 1.169996,-0.947571 0.0038,-0.0106 0.0076,-0.02113 0.01167,-0.03165 0.0018,-0.01117 0.0036,-0.02225 0.0057,-0.03334 0.0037,-0.02008 0.0052,-0.03776 0.0052,-0.05551 -6.4e-5,-0.01759 -0.0016,-0.03527 -0.0052,-0.05527 -0.01314,-0.07213 -0.01976,-0.145299 -0.01976,-0.218618 z"
         style="color:#000000;font-style:normal;font-variant:normal;font-weight:normal;font-stretch:normal;font-size:medium;line-height:normal;font-family:sans-serif;font-variant-ligatures:normal;font-variant-position:normal;font-variant-caps:normal;font-variant-numeric:normal;font-variant-alternates:normal;font-variant-east-asian:normal;font-feature-settings:normal;font-variation-settings:normal;text-indent:0;text-align:start;text-decoration:none;text-decoration-line:none;text-decoration-style:solid;text-decoration-color:#000000;letter-spacing:normal;word-spacing:normal;text-transform:none;writing-mode:lr-tb;direction:ltr;text-orientation:mixed;dominant-baseline:auto;baseline-shift:baseline;text-anchor:start;white-space:normal;shape-padding:0;shape-margin:0;inline-size:0;clip-rule:nonzero;display:inline;overflow:visible;visibility:visible;isolation:auto;mix-blend-mode:normal;color-interpolation:sRGB;color-interpolation-filters:linearRGB;solid-color:#000000;solid-opacity:1;vector-effect:none;fill:#87cdde;fill-opacity:1;fill-rule:nonzero;stroke:none;stroke-width:2.43858;stroke-linecap:round;stroke-linejoin:round;stroke-miterlimit:4;stroke-dasharray:none;stroke-dashoffset:0;stroke-opacity:1;color-rendering:auto;image-rendering:auto;shape-rendering:auto;text-rendering:auto;enable-background:accumulate;stop-color:#000000"
         id="path1066" />
      <path
         sodipodi:nodetypes="sccssccsss"
         id="path1086"
         d="m 44.14195,22.036118 c -0.641432,-0.0503 -1.266658,0.05515 -1.846939,0.380729 l -0.05644,1.150073 c 0.709742,-0.398221 2.220834,-0.384768 3.334496,0.129824 1.113662,0.514593 2.394282,1.435222 3.722682,2.463487 2.656801,2.05653 5.457945,4.573078 8.225725,5.02598 l -0.151259,-1.377575 c -2.139883,-0.350158 -4.633984,-2.526799 -7.328313,-4.612379 -1.347165,-1.042789 -2.669052,-2.01161 -3.9567,-2.606597 -0.643824,-0.297493 -1.301814,-0.503248 -1.943248,-0.553542 z"
         style="color:#000000;font-style:normal;font-variant:normal;font-weight:normal;font-stretch:normal;font-size:medium;line-height:normal;font-family:sans-serif;font-variant-ligatures:normal;font-variant-position:normal;font-variant-caps:normal;font-variant-numeric:normal;font-variant-alternates:normal;font-variant-east-asian:normal;font-feature-settings:normal;font-variation-settings:normal;text-indent:0;text-align:start;text-decoration:none;text-decoration-line:none;text-decoration-style:solid;text-decoration-color:#000000;letter-spacing:normal;word-spacing:normal;text-transform:none;writing-mode:lr-tb;direction:ltr;text-orientation:mixed;dominant-baseline:auto;baseline-shift:baseline;text-anchor:start;white-space:normal;shape-padding:0;shape-margin:0;inline-size:0;clip-rule:nonzero;display:inline;overflow:visible;visibility:visible;isolation:auto;mix-blend-mode:normal;color-interpolation:sRGB;color-interpolation-filters:linearRGB;solid-color:#000000;solid-opacity:1;vector-effect:none;fill:#164450;fill-opacity:1;fill-rule:nonzero;stroke:none;stroke-width:1.21929;stroke-linecap:butt;stroke-linejoin:miter;stroke-miterlimit:4;stroke-dasharray:none;stroke-dashoffset:0;stroke-opacity:1;color-rendering:auto;image-rendering:auto;shape-rendering:auto;text-rendering:auto;enable-background:accumulate;stop-color:#000000" />
      <path
         sodipodi:nodetypes="sccsccss"
         id="path1090"
         d="m 44.731496,32.031376 c -0.625854,0.0037 -1.274688,0.0978 -1.952248,0.312323 l 0.0624,1.293527 c 2.253959,-0.713628 4.368226,0.016 6.512593,1.077253 2.144366,1.061251 4.574256,2.310224 7.729786,1.893744 l 0.05752,-1.382977 c -2.764231,0.364832 -5.091191,-0.536852 -7.246362,-1.60345 -1.616377,-0.799948 -3.286131,-1.601635 -5.163691,-1.59042 z"
         style="color:#000000;font-style:normal;font-variant:normal;font-weight:normal;font-stretch:normal;font-size:medium;line-height:normal;font-family:sans-serif;font-variant-ligatures:normal;font-variant-position:normal;font-variant-caps:normal;font-variant-numeric:normal;font-variant-alternates:normal;font-variant-east-asian:normal;font-feature-settings:normal;font-variation-settings:normal;text-indent:0;text-align:start;text-decoration:none;text-decoration-line:none;text-decoration-style:solid;text-decoration-color:#000000;letter-spacing:normal;word-spacing:normal;text-transform:none;writing-mode:lr-tb;direction:ltr;text-orientation:mixed;dominant-baseline:auto;baseline-shift:baseline;text-anchor:start;white-space:normal;shape-padding:0;shape-margin:0;inline-size:0;clip-rule:nonzero;display:inline;overflow:visible;visibility:visible;isolation:auto;mix-blend-mode:normal;color-interpolation:sRGB;color-interpolation-filters:linearRGB;solid-color:#000000;solid-opacity:1;vector-effect:none;fill:#164450;fill-opacity:1;fill-rule:nonzero;stroke:none;stroke-width:1.21929;stroke-linecap:butt;stroke-linejoin:miter;stroke-miterlimit:4;stroke-dasharray:none;stroke-dashoffset:0;stroke-opacity:1;color-rendering:auto;image-rendering:auto;shape-rendering:auto;text-rendering:auto;enable-background:accumulate;stop-color:#000000" />
      <path
         sodipodi:nodetypes="csccscc"
         id="path1094"
         d="m 56.978123,41.012087 c -1.797045,0.872149 -4.328156,1.076386 -6.569897,0.907439 -2.241743,-0.168946 -4.833897,-1.495239 -7.556416,0.138223 l 0.06125,1.350702 c 2.436896,-1.46209 5.218528,-0.437595 7.403361,-0.272934 2.184834,0.164656 4.396328,0.51449 6.583999,-0.547241 z"
         style="color:#000000;font-style:normal;font-variant:normal;font-weight:normal;font-stretch:normal;font-size:medium;line-height:normal;font-family:sans-serif;font-variant-ligatures:normal;font-variant-position:normal;font-variant-caps:normal;font-variant-numeric:normal;font-variant-alternates:normal;font-variant-east-asian:normal;font-feature-settings:normal;font-variation-settings:normal;text-indent:0;text-align:start;text-decoration:none;text-decoration-line:none;text-decoration-style:solid;text-decoration-color:#000000;letter-spacing:normal;word-spacing:normal;text-transform:none;writing-mode:lr-tb;direction:ltr;text-orientation:mixed;dominant-baseline:auto;baseline-shift:baseline;text-anchor:start;white-space:normal;shape-padding:0;shape-margin:0;inline-size:0;clip-rule:nonzero;display:inline;overflow:visible;visibility:visible;isolation:auto;mix-blend-mode:normal;color-interpolation:sRGB;color-interpolation-filters:linearRGB;solid-color:#000000;solid-opacity:1;vector-effect:none;fill:#164450;fill-opacity:1;fill-rule:nonzero;stroke:none;stroke-width:1.21929;stroke-linecap:butt;stroke-linejoin:miter;stroke-miterlimit:4;stroke-dasharray:none;stroke-dashoffset:0;stroke-opacity:1;color-rendering:auto;image-rendering:auto;shape-rendering:auto;text-rendering:auto;enable-background:accumulate;stop-color:#000000" />
      <path
         sodipodi:nodetypes="csccscc"
         id="path1104"
         d="m 57.648117,50.129005 c -2.462757,1.137479 -4.398167,0.913274 -6.578598,0.801959 -2.180431,-0.111315 -5.24508,-1.125635 -8.175963,0.64792 l -0.02224,1.565733 c 2.691531,-1.62872 5.35027,-0.756364 7.48291,-0.647492 2.132639,0.108877 4.407285,0.355013 7.151939,-0.91267 z"
         style="color:#000000;font-style:normal;font-variant:normal;font-weight:normal;font-stretch:normal;font-size:medium;line-height:normal;font-family:sans-serif;font-variant-ligatures:normal;font-variant-position:normal;font-variant-caps:normal;font-variant-numeric:normal;font-variant-alternates:normal;font-variant-east-asian:normal;font-feature-settings:normal;font-variation-settings:normal;text-indent:0;text-align:start;text-decoration:none;text-decoration-line:none;text-decoration-style:solid;text-decoration-color:#000000;letter-spacing:normal;word-spacing:normal;text-transform:none;writing-mode:lr-tb;direction:ltr;text-orientation:mixed;dominant-baseline:auto;baseline-shift:baseline;text-anchor:start;white-space:normal;shape-padding:0;shape-margin:0;inline-size:0;clip-rule:nonzero;display:inline;overflow:visible;visibility:visible;isolation:auto;mix-blend-mode:normal;color-interpolation:sRGB;color-interpolation-filters:linearRGB;solid-color:#000000;solid-opacity:1;vector-effect:none;fill:#164450;fill-opacity:1;fill-rule:nonzero;stroke:none;stroke-width:1.21929;stroke-linecap:butt;stroke-linejoin:miter;stroke-miterlimit:4;stroke-dasharray:none;stroke-dashoffset:0;stroke-opacity:1;color-rendering:auto;image-rendering:auto;shape-rendering:auto;text-rendering:auto;enable-background:accumulate;stop-color:#000000" />
      <path
         sodipodi:nodetypes="csccscc"
         id="path1108"
         d="m 57.517479,59.363649 c -2.462756,1.137478 -4.920722,1.262539 -7.101153,1.151225 -2.180431,-0.111314 -4.591887,-0.08143 -7.52277,1.69213 l 0.0213,1.565733 c 2.691532,-1.62872 5.306725,-2.148943 7.439365,-2.04007 2.132639,0.108877 4.407287,0.354115 7.151941,-0.913569 z"
         style="color:#000000;font-style:normal;font-variant:normal;font-weight:normal;font-stretch:normal;font-size:medium;line-height:normal;font-family:sans-serif;font-variant-ligatures:normal;font-variant-position:normal;font-variant-caps:normal;font-variant-numeric:normal;font-variant-alternates:normal;font-variant-east-asian:normal;font-feature-settings:normal;font-variation-settings:normal;text-indent:0;text-align:start;text-decoration:none;text-decoration-line:none;text-decoration-style:solid;text-decoration-color:#000000;letter-spacing:normal;word-spacing:normal;text-transform:none;writing-mode:lr-tb;direction:ltr;text-orientation:mixed;dominant-baseline:auto;baseline-shift:baseline;text-anchor:start;white-space:normal;shape-padding:0;shape-margin:0;inline-size:0;clip-rule:nonzero;display:inline;overflow:visible;visibility:visible;isolation:auto;mix-blend-mode:normal;color-interpolation:sRGB;color-interpolation-filters:linearRGB;solid-color:#000000;solid-opacity:1;vector-effect:none;fill:#164450;fill-opacity:1;fill-rule:nonzero;stroke:none;stroke-width:1.21929;stroke-linecap:butt;stroke-linejoin:miter;stroke-miterlimit:4;stroke-dasharray:none;stroke-dashoffset:0;stroke-opacity:1;color-rendering:auto;image-rendering:auto;shape-rendering:auto;text-rendering:auto;enable-background:accumulate;stop-color:#000000" />
    </g>
  </g>
</svg>
