<?xml version="1.0" encoding="UTF-8" standalone="no"?>
<svg
   xmlns:dc="http://purl.org/dc/elements/1.1/"
   xmlns:cc="http://creativecommons.org/ns#"
   xmlns:rdf="http://www.w3.org/1999/02/22-rdf-syntax-ns#"
   xmlns:svg="http://www.w3.org/2000/svg"
   xmlns="http://www.w3.org/2000/svg"
   xmlns:sodipodi="http://sodipodi.sourceforge.net/DTD/sodipodi-0.dtd"
   xmlns:inkscape="http://www.inkscape.org/namespaces/inkscape"
   sodipodi:docname="code-idea.svg"
   inkscape:version="1.0 (4035a4fb49, 2020-05-01)"
   id="svg953"
   version="1.1"
   viewBox="0 0 158.75 79.375005"
   height="300"
   width="600">
  <defs
     id="defs947" />
  <sodipodi:namedview
     inkscape:window-maximized="1"
     inkscape:window-y="-9"
     inkscape:window-x="-9"
     inkscape:window-height="1001"
     inkscape:window-width="1920"
     units="px"
     showgrid="false"
     inkscape:document-rotation="0"
     inkscape:current-layer="layer1"
     inkscape:document-units="mm"
     inkscape:cy="121.90139"
     inkscape:cx="134.82156"
     inkscape:zoom="0.7"
     inkscape:pageshadow="2"
     inkscape:pageopacity="0.0"
     borderopacity="1.0"
     bordercolor="#666666"
     pagecolor="#ffffff"
     id="base" />
  <metadata
     id="metadata950">
    <rdf:RDF>
      <cc:Work
         rdf:about="">
        <dc:format>image/svg+xml</dc:format>
        <dc:type
           rdf:resource="http://purl.org/dc/dcmitype/StillImage" />
        <dc:title></dc:title>
      </cc:Work>
    </rdf:RDF>
  </metadata>
  <g
     id="layer1"
     inkscape:groupmode="layer"
     inkscape:label="Layer 1">
    <g
       transform="matrix(1.0314526,0,0,1.0314526,-1.8842299,-23.616119)"
       id="g2259">
      <path
         d="m 124.35953,53.399655 h 3.44901 v 0 a 1.3614494,1.3614494 0 0 1 -1.36145,1.36145 h -0.72611 a 1.3614494,1.3614494 0 0 1 -1.36145,-1.36145 z"
         fill="#3f3d56"
         id="path1546"
         style="stroke-width:0.0591934" />
      <path
         d="m 128.61441,50.351492 v -1.265186 c 0,-1.528764 1.66267,-2.974767 2.74124,-4.00642 1.52033,-1.453382 2.3195,-3.405985 2.3195,-5.693334 a 7.5911708,7.5911708 0 0 0 -15.18222,-0.04223 q -6e-5,0.02112 0,0.04223 c 0,2.205639 0.83344,4.290561 2.3195,5.693334 1.07278,1.012675 2.74124,2.461841 2.74124,4.00642 v 1.265186"
         fill="#6c63ff"
         id="path1548"
         style="fill:#ffcc00;stroke-width:0.0591934" />
      <path
         d="m 128.61442,50.529061 a 0.17757089,0.17757089 0 0 1 -0.17758,-0.17758 v -1.2652 c 0,-1.487236 1.46678,-2.875623 2.53778,-3.889365 0.0889,-0.08417 0.1753,-0.165961 0.25828,-0.245329 1.48157,-1.416366 2.26467,-3.340701 2.26467,-5.565023 0,-4.157126 -3.25639,-7.413547 -7.41352,-7.413547 -0.007,-2.9e-5 -0.014,-2.9e-5 -0.0209,-2.9e-5 a 7.4009852,7.4009852 0 0 0 -7.39262,7.371835 v 0.04136 c 0,2.178424 0.82513,4.206493 2.26383,5.564589 0.0729,0.06885 0.14859,0.139718 0.22631,0.212438 1.08485,1.015711 2.57061,2.406699 2.57061,3.923069 v 1.265202 a 0.17758036,0.17758036 0 1 1 -0.35516,0 v -1.265202 c 0,-1.362316 -1.42079,-2.692493 -2.45817,-3.663809 -0.0781,-0.07307 -0.15414,-0.144284 -0.22738,-0.21342 -1.50946,-1.42492 -2.3752,-3.547127 -2.3752,-5.822491 v -0.0426 c 0.0119,-4.264588 3.48559,-7.726133 7.74726,-7.726133 0.008,0 0.0144,0 0.0219,2.9e-5 a 7.7281327,7.7281327 0 0 1 7.76819,7.768707 c 0,2.323632 -0.82105,4.336759 -2.37436,5.82174 -0.0834,0.07971 -0.17027,0.161973 -0.25961,0.246541 -1.02415,0.969411 -2.42676,2.297041 -2.42676,3.631436 v 1.265203 a 0.17757089,0.17757089 0 0 1 -0.17757,0.177582 z"
         fill="#3f3d56"
         id="path1550"
         style="stroke-width:0.0591934" />
      <path
         d="m 127.77095,52.807721 h -3.37383 a 0.29596725,0.29596725 0 0 1 0,-0.591934 h 3.37383 a 0.29596725,0.29596725 0 1 1 0,0.591934 z"
         fill="#6c63ff"
         id="path1552"
         style="fill:#333333;stroke-width:0.0591934" />
      <path
         d="m 118.23491,32.409998 a 0.29477096,0.29477096 0 0 1 -0.19452,-0.07301 l -2.54171,-2.218656 a 0.29596161,0.29596161 0 1 1 0.38927,-0.445917 l 2.5417,2.218656 a 0.29596725,0.29596725 0 0 1 -0.19474,0.518927 z"
         fill="#e6e6e6"
         id="path1554"
         style="fill:#bbbbbb;fill-opacity:1;stroke-width:0.0591934" />
      <path
         d="m 133.51147,32.409998 a 0.29596725,0.29596725 0 0 1 -0.19475,-0.518926 l 2.54168,-2.218656 a 0.29596161,0.29596161 0 0 1 0.38927,0.445917 l -2.54169,2.218656 a 0.29476919,0.29476919 0 0 1 -0.19451,0.07301 z"
         fill="#e6e6e6"
         id="path1556"
         style="fill:#bbbbbb;fill-opacity:1;stroke-width:0.0591934" />
      <path
         d="m 128.61442,51.75721 h -5.06075 a 0.29596725,0.29596725 0 0 1 0,-0.591933 h 5.06075 a 0.29596725,0.29596725 0 1 1 0,0.591933 z"
         fill="#6c63ff"
         id="path1558"
         style="fill:#4d4d4d;stroke-width:0.0591934" />
      <path
         d="m 126.08405,50.647449 a 0.29596372,0.29596372 0 0 1 -0.29597,-0.295968 v -6.747649 a 0.29597,0.29597 0 0 1 0.59194,0 v 6.747649 a 0.29596372,0.29596372 0 0 1 -0.29597,0.295968 z"
         fill="#ffffff"
         id="path1560"
         style="stroke-width:0.0591934" />
      <path
         d="m 126.08405,43.8998 c -0.95629,0 -2.13036,-0.865126 -2.17987,-0.901949 a 0.29596965,0.29596965 0 1 1 0.35331,-0.474935 c 0.29415,0.218246 1.19601,0.784949 1.82656,0.784949 0.63055,0 1.53241,-0.566702 1.8267,-0.785064 a 0.29597363,0.29597363 0 0 1 0.35317,0.47505 c -0.0495,0.03682 -1.22358,0.901949 -2.17987,0.901949 z"
         fill="#ffffff"
         id="path1562"
         style="stroke-width:0.0591934" />
      <path
         d="m 126.08402,29.455614 a 0.29598206,0.29598206 0 0 1 -0.29597,-0.295967 v -5.060754 a 0.29597,0.29597 0 0 1 0.59194,0 v 5.060754 a 0.29598206,0.29598206 0 0 1 -0.29597,0.295967 z"
         fill="#e6e6e6"
         id="path1564"
         style="fill:#bbbbbb;fill-opacity:1;stroke-width:0.0591934" />
      <polygon
         points="89.173,414.487 77.591,390.495 52.772,388.84 61.045,426.069 "
         fill="#ffb9b9"
         id="polygon1602"
         transform="matrix(-0.13322499,0,0,0.13322499,148.83519,38.367731)"
         style="fill:#d38d5f" />
      <polygon
         points="148.739,368.985 156.185,380.567 235.606,326.792 289.381,397.113 340.674,371.467 305.1,321.001 247.189,264.744 214.096,290.391 "
         fill="#2f2e41"
         id="polygon1604"
         transform="matrix(-0.13322499,0,0,0.13322499,148.83519,38.367731)" />
      <polygon
         points="148.739,368.985 156.185,380.567 235.606,326.792 289.381,397.113 340.674,371.467 305.1,321.001 247.189,264.744 214.096,290.391 "
         opacity="0.1"
         id="polygon1606"
         transform="matrix(-0.13322499,0,0,0.13322499,148.83519,38.367731)" />
      <path
         d="m 107.52691,86.092913 0.99197,0.771525 8.0459,-2.755448 1.87371,-0.771525 3.7474,0.771525 c 0,0 0,-3.086101 -3.52697,-2.975883 l -3.63719,0.881743 -4.2985,0.330654 z"
         fill="#ffb9b9"
         id="path1608"
         style="fill:#d38d5f;stroke-width:0.133225" />
      <polygon
         points="224.024,393.804 77.591,420.278 73.454,388.84 207.478,330.102 324.956,368.985 363.839,419.451 345.638,431.033 324.128,431.033 "
         fill="#2f2e41"
         id="polygon1610"
         transform="matrix(-0.13322499,0,0,0.13322499,148.83519,38.367731)" />
      <path
         d="m 116.01369,74.630252 1.65327,0.330652 0.36027,-0.420317 a 2.2270809,2.2270809 0 0 0 0.30104,-2.445344 v 0 l -4.62915,-6.061985 c 0,0 -1.32262,-2.975884 -3.41676,-1.763487 -2.09414,1.212396 1.76349,3.196319 1.76349,3.196319 l 2.31457,3.637191 -0.22043,1.873705 z"
         fill="#ffb9b9"
         id="path1612"
         style="fill:#d38d5f;stroke-width:0.133225" />
      <circle
         cx="-105.54299"
         cy="63.167591"
         r="4.2984977"
         fill="#ffb9b9"
         id="circle1614"
         transform="scale(-1,1)"
         style="fill:#d38d5f;stroke-width:0.133225" />
      <path
         d="m 107.4718,66.308799 -1.98392,4.739371 -4.73937,-1.983921 c 0,0 1.54305,-3.747409 1.54305,-3.857627 0,-0.110218 5.18024,1.102177 5.18024,1.102177 z"
         fill="#ffb9b9"
         id="path1616"
         style="fill:#d38d5f;stroke-width:0.133225" />
      <path
         d="m 94.420905,80.329614 a 24.697608,24.697608 0 0 0 1.211294,7.639202 l 0.321834,0.989762 1.543052,7.053946 1.653268,0.440871 1.212397,-1.54305 2.42479,-1.76348 1.76349,-2.865669 1.51219,-2.51958 0.47173,-0.786961 1.65327,-8.266344 6.28242,-3.526969 2.09414,-0.330654 -0.44087,-1.212396 -1.87371,-2.535012 -1.8737,-0.220442 -0.55108,-0.440871 -0.44088,0.220436 -1.76348,-0.991962 -0.55109,0.220437 -3.22277,0.299789 -1.95748,-0.410007 -2.81496,-1.511086 -1.152879,0.188475 -3.96784,3.306537 a 24.675941,24.675941 0 0 0 -1.533136,8.565028 z"
         fill="#575a89"
         id="path1618"
         style="fill:#ff9955;stroke-width:0.133225" />
      <path
         d="m 140.7897,92.098081 c 0,0 -0.98719,-1.673129 -0.57022,-1.868463 0.41697,-0.195335 2.18776,-0.974041 2.18776,-0.974041 l 2.59684,-0.860595 c 0,0 3.74709,-5.568938 3.82934,-0.72611 0.0823,4.842829 -2.72834,6.006941 -2.72834,6.006941 0,0 -2.5067,5.394635 -3.92664,4.534401 -1.41993,-0.860233 -2.84079,-3.780369 -2.84079,-3.780369 0,0 2.56058,-1.376493 1.45205,-2.331764 z"
         fill="#2f2e41"
         id="path1620"
         style="stroke-width:0.133225" />
      <polygon
         points="317.51,364.848 307.582,315.21 310.064,315.21 335.711,268.054 399.413,307.764 367.975,328.447 321.051,370.755 "
         opacity="0.1"
         id="polygon1622"
         transform="matrix(-0.13322499,0,0,0.13322499,148.83519,38.367731)" />
      <polygon
         points="295.173,326.792 281.936,330.102 317.51,368.985 367.975,323.483 399.413,302.8 335.711,263.09 310.064,310.246 300.964,310.246 "
         fill="#575a89"
         id="polygon1624"
         transform="matrix(-0.13322499,0,0,0.13322499,148.83519,38.367731)"
         style="fill:#ff9955;stroke:none" />
      <path
         d="m 108.88635,59.97147 0.46573,0.179188 c 0.30169,-0.204262 0.37666,-0.616523 0.16621,-0.913924 v 0 c -2.34326,-3.120867 -6.02862,-3.527567 -8.84148,-0.822295 -0.0392,-0.134957 -0.46634,0.127613 -0.64073,0.393848 -0.0586,-0.219604 -0.459105,0.841974 -0.600763,1.592368 -0.06558,-0.24985 -0.317742,0.153499 -0.09683,0.54053 -0.139975,-0.02045 -0.203202,0.337674 -0.09484,0.537189 -0.153129,-0.07194 -0.12732,0.355556 0.03871,0.641247 -0.218511,-0.01941 1.723323,2.994331 2.509543,4.755599 0.22829,-1.048938 0.48497,-2.153489 1.2211,-2.934835 0.12513,-0.13281 -0.12071,-0.439018 0.0446,-0.516271 l 1.09424,-0.511365 c 1.03966,-0.485857 0.36732,-0.82267 0.56852,-1.67347 0.18674,-0.789664 1.78178,-1.396651 1.35253,-2.28421 0.38781,0.161839 2.47449,1.252957 2.86579,1.403272 -0.005,-0.124015 -0.06,-0.262791 -0.0523,-0.386876 z"
         fill="#2f2e41"
         id="path1626"
         style="stroke-width:0.133225"
         sodipodi:nodetypes="cccccccccccsssscccc" />
      <circle
         cx="-103.39375"
         cy="63.66357"
         r="0.77152592"
         fill="#ffb9b9"
         id="circle1628"
         transform="scale(-1,1)"
         style="fill:#d38d5f;stroke-width:0.133225" />
      <path
         d="M 12.115467,39.082126 H 46.77656 v -0.714395 h 15.716685 v 0.714395 H 97.29722 a 2.34456,2.34456 0 0 1 2.344561,2.344561 V 88.888382 A 2.3445666,2.3445666 0 0 1 97.29722,91.232955 H 12.115467 A 2.3445666,2.3445666 0 0 1 9.7709072,88.888386 V 41.426687 a 2.34456,2.34456 0 0 1 2.3445598,-2.344561 z"
         fill="#3f3d56"
         id="path1642"
         style="stroke-width:0.133225" />
      <rect
         x="-96.498444"
         y="43.225616"
         width="83.584198"
         height="47.150059"
         fill="#6c63ff"
         id="rect1644"
         transform="scale(-1,1)"
         style="fill:#aaeeff;stroke-width:0.133225" />
      <circle
         cx="-54.777786"
         cy="41.082432"
         r="0.85727352"
         fill="#6c63ff"
         id="circle1646"
         transform="scale(-1,1)"
         style="fill:#00aa88;stroke-width:0.133225" />
      <polygon
         points="392.845,36.464 840.813,390.377 392.845,390.377 "
         opacity="0.1"
         id="polygon1648"
         transform="matrix(-0.13322499,0,0,0.13322499,148.83519,38.367731)" />
      <circle
         cx="-83.420021"
         cy="78.813049"
         r="8.0343733"
         fill="#f2f2f2"
         id="circle1650"
         transform="scale(-1,1)"
         style="stroke-width:0.133225" />
      <path
         d="m 81.631478,84.851661 a 9.9939765,9.9939765 0 1 0 -9.993976,-9.993976 10.005314,10.005314 0 0 0 9.993976,9.993976 z m 0,-19.857312 a 9.8633361,9.8633361 0 1 1 -9.863336,9.863336 9.874503,9.874503 0 0 1 9.863336,-9.863336 z"
         fill="#3f3d56"
         id="path1652"
         style="stroke-width:0.133225" />
      <rect
         x="-35.275311"
         y="68.654022"
         width="7.8076773"
         height="1.6314546"
         fill="#3f3d56"
         id="rect1654"
         transform="scale(-1,1)"
         style="stroke-width:0.133225" />
      <rect
         x="-44.714443"
         y="55.951977"
         width="26.685942"
         height="0.69919538"
         fill="#3f3d56"
         id="rect1656"
         transform="scale(-1,1)"
         style="stroke-width:0.133225" />
      <rect
         x="-44.714443"
         y="58.166096"
         width="26.685942"
         height="0.69919538"
         fill="#3f3d56"
         id="rect1658"
         transform="scale(-1,1)"
         style="stroke-width:0.133225" />
      <rect
         x="-44.714443"
         y="60.380215"
         width="26.685942"
         height="0.69919538"
         fill="#3f3d56"
         id="rect1660"
         transform="scale(-1,1)"
         style="stroke-width:0.133225" />
      <rect
         x="-44.714443"
         y="62.59433"
         width="26.685942"
         height="0.69919538"
         fill="#3f3d56"
         id="rect1662"
         transform="scale(-1,1)"
         style="stroke-width:0.133225" />
      <rect
         x="-44.714443"
         y="64.808449"
         width="26.685942"
         height="0.69919538"
         fill="#3f3d56"
         id="rect1664"
         transform="scale(-1,1)"
         style="stroke-width:0.133225" />
      <rect
         x="-21.291412"
         y="44.182198"
         width="3.2629104"
         height="3.2629104"
         fill="#f2f2f2"
         id="rect1666"
         transform="scale(-1,1)"
         style="stroke-width:0.133225" />
      <path
         d="m 16.51357,48.960028 h 3.962125 V 44.997916 H 16.51357 Z m 3.789852,-0.17226 h -3.617578 v -3.61758 h 3.617578 z"
         fill="#3f3d56"
         id="path1668"
         style="stroke-width:0.133225" />
      <path
         d="m 7.4240424,89.518401 h 8.1572726 v -0.587726 a 0.1165279,0.1165279 0 0 1 0.116532,-0.116533 h 2.796779 a 0.11652923,0.11652923 0 0 1 0.116532,0.116533 v 0.587726 h 1.747992 v -0.587726 a 0.11652923,0.11652923 0 0 1 0.116532,-0.116533 h 2.796779 a 0.11652923,0.11652923 0 0 1 0.116531,0.116533 v 0.587726 h 1.74799 v -0.587726 a 0.11652923,0.11652923 0 0 1 0.116533,-0.116533 h 2.79678 a 0.11652923,0.11652923 0 0 1 0.116532,0.116533 v 0.587726 h 1.747988 v -0.587726 a 0.11652923,0.11652923 0 0 1 0.116532,-0.116533 h 2.796783 a 0.1165279,0.1165279 0 0 1 0.116531,0.116533 v 0.587726 h 1.747986 v -0.587726 a 0.11652923,0.11652923 0 0 1 0.116533,-0.116533 h 2.796779 a 0.11652923,0.11652923 0 0 1 0.116533,0.116533 v 0.587726 h 1.747988 v -0.587726 a 0.11652923,0.11652923 0 0 1 0.116532,-0.116533 h 2.79678 a 0.11652923,0.11652923 0 0 1 0.116532,0.116533 v 0.587726 h 1.747985 v -0.587726 a 0.11652923,0.11652923 0 0 1 0.116532,-0.116533 h 21.908113 a 0.11652923,0.11652923 0 0 1 0.116532,0.116533 v 0.587726 h 1.747987 v -0.587726 a 0.11652923,0.11652923 0 0 1 0.116534,-0.116533 h 2.796772 a 0.11652923,0.11652923 0 0 1 0.116533,0.116533 v 0.587726 h 1.747995 v -0.587726 a 0.1165279,0.1165279 0 0 1 0.116531,-0.116533 h 2.796781 a 0.11652923,0.11652923 0 0 1 0.116532,0.116533 v 0.587726 h 1.747987 v -0.587726 a 0.11652923,0.11652923 0 0 1 0.116532,-0.116533 h 2.796781 a 0.11652923,0.11652923 0 0 1 0.116533,0.116533 v 0.587726 h 1.747986 v -0.587726 a 0.11652923,0.11652923 0 0 1 0.116533,-0.116533 h 2.796781 a 0.11652923,0.11652923 0 0 1 0.116532,0.116533 v 0.587726 h 1.74799 v -0.587726 a 0.11652923,0.11652923 0 0 1 0.116532,-0.116533 h 2.796778 a 0.1165279,0.1165279 0 0 1 0.116531,0.116533 v 0.587726 h 1.747988 v -0.587726 a 0.11652923,0.11652923 0 0 1 0.116533,-0.116533 h 2.796779 a 0.11652923,0.11652923 0 0 1 0.116534,0.116533 v 0.587726 h 5.360499 a 2.7967816,2.7967816 0 0 1 2.79677,2.796781 v 1.264638 a 2.7967802,2.7967802 0 0 1 -2.79677,2.796772 H 7.4240424 A 2.7967816,2.7967816 0 0 1 4.6272635,93.57982 v -1.264638 a 2.7967829,2.7967829 0 0 1 2.7967789,-2.796781 z"
         fill="#3f3d56"
         id="path1670"
         style="stroke-width:0.133225" />
      <g
         id="g1941"
         transform="matrix(0,-0.82086441,0.82086441,0,19.501539,10.643644)">
        <circle
           style="stroke-width:0.0763542"
           id="circle1800"
           fill="#f2f2f2"
           r="10.607484"
           cy="77.197105"
           cx="-83.276253" />
        <path
           style="stroke-width:0.0763542"
           id="path1802"
           fill="#2f2e41"
           d="m -70.444622,81.902059 a 22.412661,22.412661 0 1 1 15.84807,-6.564516 22.265894,22.265894 0 0 1 -15.84807,6.564516 z m 0,-44.654126 c -12.263984,0 -22.241497,9.977473 -22.241497,22.241498 0,12.264026 9.977512,22.241539 22.241497,22.241539 12.263985,0 22.241498,-9.977513 22.241498,-22.241541 0,-12.264028 -9.977514,-22.241496 -22.241498,-22.241496 z" />
        <polygon
           transform="matrix(0.07635423,0,0,0.07635423,-93.883736,37.076845)"
           id="polygon1804"
           fill="#6c63ff"
           points="162.271,222.003 305.334,120.05 306.913,121.037 454.975,213.781 459.908,386.443 459.875,386.46 315.201,467.019 156.779,387.808 154.049,386.443 " />
        <polygon
           transform="matrix(0.07635423,0,0,0.07635423,-93.883736,37.076845)"
           id="polygon1806"
           opacity="0.3"
           points="156.779,387.808 297.112,289.424 459.875,386.46 315.201,467.019 " />
        <polygon
           transform="matrix(0.07635423,0,0,0.07635423,-93.883736,37.076845)"
           id="polygon1808"
           opacity="0.1"
           points="306.913,121.037 454.975,213.781 459.908,386.443 297.112,289.424 " />
        <polygon
           transform="matrix(0.07635423,0,0,0.07635423,-93.883736,37.076845)"
           id="polygon1810"
           fill="#f2f2f2"
           points="304.021,169.5 456.834,265.309 456.094,266.49 304.066,171.173 160.165,272.745 159.361,271.607 " />
        <polygon
           transform="matrix(0.07635423,0,0,0.07635423,-93.883736,37.076845)"
           id="polygon1812"
           fill="#f2f2f2"
           points="300.505,229.743 300.882,229.957 456.963,318.417 456.275,319.629 300.571,231.382 157.361,328.61 156.579,327.458 " />
        <polygon
           transform="matrix(0.07635423,0,0,0.07635423,-93.883736,37.076845)"
           id="polygon1814"
           fill="#f2f2f2"
           points="356.595,324.9 356.595,152.594 357.988,152.594 357.988,325.676 212.276,415.965 211.542,414.781 " />
        <polygon
           transform="matrix(0.07635423,0,0,0.07635423,-93.883736,37.076845)"
           id="polygon1816"
           fill="#f2f2f2"
           points="408.138,355.645 408.138,184.879 409.531,184.879 409.531,356.416 269.209,444.428 268.469,443.248 " />
        <polygon
           transform="matrix(0.07635423,0,0,0.07635423,-93.883736,37.076845)"
           id="polygon1818"
           fill="#f2f2f2"
           points="245.199,325.296 253.75,156.281 255.141,156.352 246.612,324.933 408.289,414.764 407.612,415.982 245.176,325.73 " />
        <polygon
           transform="matrix(0.07635423,0,0,0.07635423,-93.883736,37.076845)"
           id="polygon1820"
           fill="#f2f2f2"
           points="195.92,359.841 205.388,190.742 206.779,190.82 197.337,359.471 357.154,443.221 356.507,444.455 195.895,360.288 " />
        <circle
           style="stroke-width:0.0763542"
           id="circle1822"
           fill="#3f3d56"
           r="4.2772112"
           cy="41.952885"
           cx="-56.672001" />
      </g>
    </g>
  </g>
</svg>
